<?xml version="1.0" encoding="utf-8"?>
<!-- Generator: Adobe Illustrator 18.0.0, SVG Export Plug-In . SVG Version: 6.00 Build 0)  -->
<!DOCTYPE svg PUBLIC "-//W3C//DTD SVG 1.1//EN" "http://www.w3.org/Graphics/SVG/1.1/DTD/svg11.dtd">
<svg version="1.1" id="Layer_1" xmlns="http://www.w3.org/2000/svg" xmlns:xlink="http://www.w3.org/1999/xlink" x="0px" y="0px"
	 width="256px" height="256px" viewBox="0 0 256 256" enable-background="new 0 0 256 256" xml:space="preserve">
<g>
	<g>
		<g>
			<rect x="82.9" y="235.3" fill="#E0E0E0" width="10" height="20.2"/>
		</g>
		<g>
			<rect x="174.4" y="235.3" fill="#E0E0E0" width="9" height="20.2"/>
		</g>
		<g>
			<path fill="#E0E0E0" d="M174.6,231.4c-4.1,0-7.9-2.4-9.6-6.3c-1.7-3.7-0.9-8.1,1.7-11.2l15.2-18.5c1.4-1.7,0.2-4.3-2-4.3H86.3
				c-2.3,0-3.5,2.7-2,4.4l15.2,17.5c2.8,3.2,3.7,7.8,1.9,11.7c-2.2,5-7.7,7.5-12.9,6.1c-2.1-0.6-3.9-1.8-5.4-3.5l-20.3-22.7
				c-1.9-2.2-3-5-3-7.9v-42.4c0-24,19.5-43.5,43.5-43.5h59.4c24,0,43.5,19.5,43.5,43.5v42.4c0,2.9-1.1,5.7-3,7.9l-20.8,23.3
				C180.4,230.2,177.6,231.4,174.6,231.4L174.6,231.4z"/>
		</g>
		<g>
			<path fill="#4A555F" d="M233.3,73.8h-22.8v-3.4c0-4.4-1.7-8.7-4.9-12.2c-4-4.4-6.1-10.2-5.7-16.2c0.6-11.1,9.5-20,20.6-20.7
				c12.8-0.8,23.5,9.4,23.5,22c0,5.6-2.1,10.9-5.9,15c-3.1,3.3-4.7,7.6-4.7,12.2V73.8z M213.7,70.7l16.5-0.1c0-5.4,2-10.5,5.6-14.4
				c3.3-3.5,5.1-8.1,5.1-12.9c0-10.8-9.1-19.5-20.1-18.8c-9.5,0.6-17.1,8.2-17.6,17.7c-0.3,5.1,1.4,10.1,4.9,13.8
				c3.7,4.1,5.7,9.1,5.7,14.3V70.7z"/>
		</g>
		<g>
			<path fill="#FFD552" d="M217.1,67c-0.7-4.9-2.9-9.5-6.4-13.4c-2.8-3-4.2-7-3.9-11.1c0.4-7.5,6.7-13.8,14.2-14.3c0.3,0,0.7,0,1,0
				c8.4,0,15.2,6.8,15.2,15.2c0,3.9-1.4,7.5-4.1,10.3c-3.4,3.7-5.6,8.3-6.3,13.2H217.1z"/>
		</g>
		<g>
			<path fill="#4A555F" d="M233.3,85.4h-22.8V70.7h22.8V85.4z M213.7,82.3h16.5v-8.4h-16.5V82.3z"/>
		</g>
		<g>
			<path fill="#4A555F" d="M229.6,90.8h-15.3v-8.5h15.3V90.8z M217.5,87.7h8.9v-2.2h-8.9V87.7z"/>
		</g>
		<g>
			<path fill="#4A555F" d="M220.3,72l-3.2-0.1c0-0.1,0.1-9.8-3.6-18.1c-0.8-1.8-1.2-3.6-1.3-5.5c-0.1-1.9,0.6-3.6,1.9-5
				c1.3-1.3,3-2.1,4.9-2.1h0.2c0.9,0,1.8,0.3,2.6,0.8c0.8-0.5,1.7-0.8,2.6-0.8c1.9,0,3.7,0.8,5,2.1c1.3,1.4,2,3.2,2,5.1
				c-0.1,1.7-0.5,3.5-1.2,5.1c-3.8,8.4-3.7,18.2-3.7,18.3l-3.2,0.1c0-0.4-0.1-10.6,3.9-19.6c0.6-1.3,0.9-2.6,0.9-4
				c0-1.1-0.3-2-1.1-2.8c-0.7-0.7-1.7-1.2-2.8-1.2c-0.2,0-0.4,0-0.6,0.1l1.1,2.3c0.5,1.1,0.5,2.3-0.2,3.4c-0.6,1-1.7,1.6-2.9,1.6
				c-1.2,0-2.3-0.6-2.9-1.6c-0.6-1-0.7-2.3-0.2-3.4l1.1-2.3c-0.2-0.1-0.4-0.1-0.6-0.1h-0.2c-1,0-1.9,0.4-2.6,1.1
				c-0.7,0.7-1.1,1.7-1,2.7c0,1.4,0.4,2.9,1,4.3C220.4,61.6,220.3,71.6,220.3,72z M221.8,47.7l-0.3,0.6c0,0.1,0,0.2,0,0.3
				c0,0.1,0.1,0.1,0.3,0.1c0.1,0,0.2-0.1,0.3-0.1c0.1-0.1,0.1-0.2,0-0.3L221.8,47.7z"/>
		</g>
		<g>
			<path fill="#4A555F" d="M223.3,15.8h-3.2v-3.2h3.2V15.8z M223.3,9.5h-3.2V6.3h3.2V9.5z M223.3,3.2h-3.2V0h3.2V3.2z"/>
		</g>
		<g>
			
				<rect x="235.8" y="5.8" transform="matrix(0.9175 0.3978 -0.3978 0.9175 24.4368 -93.4234)" fill="#4A555F" width="3.2" height="12.7"/>
		</g>
		<g>
			
				<rect x="200.5" y="11" transform="matrix(0.4187 0.9081 -0.9081 0.4187 131.4167 -180.2329)" fill="#4A555F" width="12.1" height="3.2"/>
		</g>
		<g>
			<g>
				<g>
					<g>
						<polygon fill="#F68F6F" points="140.1,134.6 145.8,188.5 143.6,196.4 123.7,196.4 121.4,187.7 127,134.6 123.3,124.1 
							120.5,116 146.7,116 143.9,124.1 						"/>
					</g>
				</g>
				<g>
					<path fill="#4A555F" d="M133.6,107.1c-23.3,0-42.3-19-42.3-42.3s19-42.3,42.3-42.3s42.3,19,42.3,42.3S157,107.1,133.6,107.1z
						 M133.6,25.6c-21.6,0-39.2,17.6-39.2,39.2s17.6,39.2,39.2,39.2s39.2-17.6,39.2-39.2S155.2,25.6,133.6,25.6z"/>
				</g>
				<g>
					<path fill="#FFD552" d="M133.6,100.2c-19.6,0-35.5-15.9-35.5-35.5s15.9-35.5,35.5-35.5c19.6,0,35.5,15.9,35.5,35.5
						S153.2,100.2,133.6,100.2z"/>
				</g>
				<g>
					<path fill="#4A555F" d="M141.3,136.2h-15.4l-7.7-21.8H149L141.3,136.2z M128.2,133h10.9l5.5-15.4h-21.9L128.2,133z"/>
				</g>
				<g>
					<polygon fill="#4A555F" points="144.3,188.6 138.8,136.2 128.5,136.2 123,187.8 119.8,187.5 125.6,133 141.6,133 147.4,188.3 
											"/>
				</g>
				<g>
					<path fill="#4A555F" d="M110.4,143.9l-8.6-40h16l7.2,20.4L110.4,143.9z M105.7,107.1l6.3,29.4l9.5-12.6l-5.9-16.7H105.7z"/>
				</g>
				<g>
					<path fill="#4A555F" d="M157.4,145l-15.2-20.7l7.2-20.4h17.4L157.4,145z M145.8,123.8l10.1,13.8l7-30.5h-11.2L145.8,123.8z"/>
				</g>
				<g>
					<path fill="#4A555F" d="M143.6,198h-19.9l-1.5-1.2l-2.3-8.7l-17.7-82.3l1.5-1.9h61.1l1.5,1.9l-19.1,83l-2.2,8L143.6,198z
						 M125,194.8h17.5l1.9-6.7l18.6-81h-57.2l17.2,80.3L125,194.8z"/>
				</g>
			</g>
		</g>
		<g>
			<path fill="#4A555F" d="M175.9,256H91.3v-21.1l1.5-0.1c3.8-0.3,7.3-2.1,9.8-5c4.7-5.5,4.7-13.7,0-19.1l-11.2-12.9v-3h86.3l-14,17
				c-4.4,5.4-4.3,13.1,0.3,18.4c2.6,3,6.5,4.8,10.5,4.8l1.6,0V256z M94.5,252.8h78.3v-14.7c-4.4-0.4-8.4-2.5-11.3-5.8
				c-5.6-6.4-5.8-15.9-0.4-22.5l9.8-11.9H95.6l9.3,10.7c5.8,6.6,5.8,16.6,0,23.3c-2.7,3.2-6.4,5.2-10.5,5.9V252.8z"/>
		</g>
		<g>
			<path fill="#71CDE1" d="M98.1,249.2v-8.5c3.7-1.2,7-3.4,9.6-6.4c6.9-8,6.9-20.1-0.1-28.1l-4-4.6h59.4l-4.8,5.9
				c-6.6,8-6.4,19.5,0.4,27.3c2.8,3.2,6.4,5.4,10.4,6.5v7.9H98.1z"/>
		</g>
		<g>
			<g>
				<path fill="#4A555F" d="M174.6,238.2C174.5,238.2,174.5,238.2,174.6,238.2c-5.1,0-9.8-2.2-13.1-5.9c-5.6-6.4-5.8-15.9-0.4-22.5
					l14.3-17.4v-24h3.2v25.2l-15,18.2c-4.4,5.4-4.3,13.1,0.3,18.4c2.7,3.1,6.6,4.8,10.6,4.9c0,0,0,0,0.1,0c4,0,7.9-1.7,10.6-4.7
					l22.2-24.8c1.7-1.9,2.6-4.3,2.6-6.9v-44.5c0-26-21.2-47.2-47.2-47.2h-59.4c-26,0-47.2,21.2-47.2,47.2v44.5c0,2.5,0.9,5,2.6,6.9
					L80.7,230c2.8,3.1,6.8,4.9,11,4.9c4.2,0,8.2-1.9,10.9-5c4.7-5.5,4.7-13.7,0-19.1l-14.9-17.1v-25.2h3.2v24l14.1,16.2
					c5.8,6.6,5.8,16.6,0,23.3c-3.3,3.8-8.2,6.1-13.3,6.1c-5.1,0.1-10-2.1-13.3-5.9l-21.9-24.5c-2.2-2.5-3.4-5.7-3.4-9v-44.5
					c0-27.7,22.6-50.3,50.3-50.3h59.4c27.7,0,50.3,22.6,50.3,50.3v44.5c0,3.3-1.2,6.5-3.4,9l-22.2,24.8
					C184.2,236.1,179.5,238.2,174.6,238.2z"/>
			</g>
		</g>
		<g>
			<g>
				<path fill="#4A555F" d="M93,238l-0.3-3.1c3.8-0.3,7.3-2.1,9.8-5c4.7-5.5,4.7-13.7,0-19.1l-10.8-12.4l2.4-2.1l10.8,12.4
					c5.8,6.6,5.8,16.6,0,23.3C101.9,235.4,97.7,237.6,93,238z"/>
			</g>
			<g>
				<path fill="#4A555F" d="M174.3,238.2c-4.9-0.1-9.6-2.2-12.9-5.9c-5.6-6.4-5.8-15.9-0.4-22.5l11.9-14.5l2.4,2l-11.9,14.5
					c-4.4,5.4-4.3,13.1,0.3,18.4c2.6,3,6.5,4.8,10.5,4.8L174.3,238.2z"/>
			</g>
		</g>
		<g>
			<rect x="76.2" y="229.1" fill="#4A555F" width="3.2" height="26.3"/>
		</g>
		<g>
			<rect x="186.8" y="229.1" fill="#4A555F" width="3.2" height="26.3"/>
		</g>
		<g>
			<path fill="#4A555F" d="M42.7,79.8c-11.3,0-21.5-7.1-25.5-17.7c-5.3-14.1,1.9-29.8,16-35c3.1-1.1,6.3-1.7,9.5-1.7
				c11.3,0,21.5,7.1,25.5,17.7c5.3,14.1-1.9,29.8-16,35C49.1,79.2,45.9,79.8,42.7,79.8z M42.7,28.5c-2.9,0-5.7,0.5-8.4,1.5
				c-12.4,4.6-18.8,18.5-14.1,31c3.5,9.4,12.6,15.6,22.5,15.6c2.9,0,5.7-0.5,8.4-1.5c12.4-4.6,18.8-18.5,14.1-31
				C61.7,34.8,52.6,28.5,42.7,28.5z"/>
		</g>
		<g>
			<path fill="#71CDE1" d="M42.7,73c-8.5,0-16.1-5.3-19.1-13.2c-1.9-5.1-1.7-10.6,0.5-15.6c2.3-5,6.3-8.7,11.4-10.6
				c2.3-0.9,4.7-1.3,7.1-1.3c8.5,0,16.1,5.3,19.1,13.2c1.9,5.1,1.7,10.6-0.5,15.6c-2.3,5-6.3,8.7-11.4,10.6
				C47.5,72.5,45.1,73,42.7,73z"/>
		</g>
		<g>
			<polygon fill="#4A555F" points="37.6,46.5 34.6,45.5 36.6,39.6 30.3,38 31.1,35 40.7,37.4 			"/>
		</g>
		<g>
			<path fill="#4A555F" d="M42.7,68.5c-2.2,0-4.5-0.5-6.6-1.4c-3.9-1.8-6.8-4.9-8.3-8.9c-1.5-4-1.3-8.3,0.4-12.2
				c1.8-3.9,4.9-6.8,8.9-8.3l1.1,3c-3.2,1.2-5.7,3.6-7.1,6.7c-1.4,3.1-1.5,6.6-0.3,9.8c1.2,3.2,3.6,5.7,6.7,7.1
				c6.4,2.9,14,0.1,16.9-6.3c1.4-3.1,1.5-6.6,0.3-9.8c-1.2-3.2-3.6-5.7-6.7-7.1l1.3-2.9c3.9,1.8,6.8,4.9,8.3,8.9
				c1.5,4,1.3,8.3-0.4,12.2c-1.8,3.9-4.9,6.8-8.9,8.3C46.4,68.2,44.5,68.5,42.7,68.5z"/>
		</g>
		<g>
			<path fill="#4A555F" d="M44.2,18h-3.2v-3.2h3.2V18z M44.2,11.7h-3.2V8.5h3.2V11.7z M44.2,5.4h-3.2V2.5h3.2V5.4z"/>
		</g>
		<g>
			
				<rect x="11.5" y="18.3" transform="matrix(0.7071 0.7071 -0.7071 0.7071 19.0615 -6.1933)" fill="#4A555F" width="11" height="3.2"/>
		</g>
		<g>
			
				<rect x="66.4" y="14.4" transform="matrix(0.7071 0.7071 -0.7071 0.7071 33.9895 -42.2349)" fill="#4A555F" width="3.2" height="11"/>
		</g>
		<g>
			<polygon fill="#FFD552" points="144,196.4 144,216.5 140.6,212.5 137.3,216.5 133.9,212.5 130.5,216.5 127.1,212.5 123.7,216.5 
				123.7,196.4 			"/>
		</g>
		<g>
			<path fill="#4A555F" d="M145.6,220.9l-5-5.9l-3.4,4l-3.4-4l-3.4,4l-3.4-4l-5,5.9v-26.1h23.4V220.9z M133.9,210l3.4,4l3.4-4
				l1.8,2.1V198h-17.1v14.2l1.8-2.1l3.4,4L133.9,210z"/>
		</g>
		<g>
			<path fill="#4A555F" d="M174.6,238.2L174.6,238.2c-5,0-9.8-2.2-13.1-5.9c-5.6-6.4-5.8-15.9-0.4-22.5l9.8-11.9H95.6l9.3,10.7
				c6.2,7.1,5.8,17.9-1.1,24.5c-3.2,3.1-7.5,4.8-12.1,4.8c-5.2,0-10.2-2.2-13.7-6.1l-21.6-24.1c-2.2-2.5-3.4-5.7-3.4-9v-44.5
				c0-27.7,22.6-50.3,50.3-50.3h59.4c27.7,0,50.3,22.6,50.3,50.3v44.5c0,3.3-1.2,6.5-3.4,9l-22.2,24.8
				C184.2,236.1,179.5,238.2,174.6,238.2z M88.7,194.8h88.9l-14,17c-4.4,5.4-4.3,13.1,0.3,18.4c2.7,3.1,6.6,4.9,10.7,4.9
				c4,0,7.9-1.7,10.6-4.7l22.2-24.8c1.7-1.9,2.6-4.3,2.6-6.9v-44.5c0-26-21.2-47.2-47.2-47.2h-59.4c-26,0-47.2,21.2-47.2,47.2v44.5
				c0,2.5,0.9,5,2.6,6.9l21.6,24.1c2.9,3.2,7,5.1,11.3,5.1c3.7,0,7.2-1.4,9.9-3.9c5.6-5.4,6-14.2,0.9-20.1L88.7,194.8z"/>
		</g>
	</g>
	<g>
		<rect x="132.3" y="212.5" fill="#4A555F" width="3.2" height="29.8"/>
	</g>
	<g>
		<rect x="92.9" y="240.7" fill="#4A555F" width="81.5" height="3.2"/>
	</g>
</g>
</svg>
