<?xml version="1.0" encoding="utf-8"?>
<!-- Generator: Adobe Illustrator 18.0.0, SVG Export Plug-In . SVG Version: 6.00 Build 0)  -->
<!DOCTYPE svg PUBLIC "-//W3C//DTD SVG 1.1//EN" "http://www.w3.org/Graphics/SVG/1.1/DTD/svg11.dtd">
<svg version="1.1" id="Layer_1" xmlns="http://www.w3.org/2000/svg" xmlns:xlink="http://www.w3.org/1999/xlink" x="0px" y="0px"
	 width="256px" height="256px" viewBox="0 0 256 256" enable-background="new 0 0 256 256" xml:space="preserve">
<g>
	<g>
		<path fill="#E0E0E0" d="M57.5,120.3l15.2,123.2H7.1v-77.6c0-25.1,20.4-45.6,45.6-45.6H57.5z"/>
	</g>
	<g>
		<path fill="#E0E0E0" d="M238.5,212.4c0.5,10.1-7.5,18.4-17.5,18.4h-40.2c-12.5,0-23.9-7.3-29.1-18.7l-7.2-14.1
			c-1.2-2.3-4.8-1.5-4.8,1.1v44.2H102l17.9-123.2h2.7c25.3,0,45.1,20.7,45.4,46c0.2,16.4,13.6,29.6,30,29.6h22.4
			C229.9,195.8,238,203,238.5,212.4z"/>
	</g>
	<g>
		<g>
			<polygon fill="#F68F6F" points="103.5,230.9 94.4,145.3 98.3,134.3 101.3,125.9 73.8,125.9 76.7,134.3 80.7,145.3 71.6,230.9 
				56.9,119.3 73.2,243.4 101.9,243.4 119.5,120.3 			"/>
		</g>
	</g>
	<g>
		<path fill="#4A555F" d="M87.6,116.5L87.6,116.5c-24.4,0-44.3-19.9-44.3-44.3c0-24.4,19.9-44.3,44.3-44.3s44.3,19.9,44.3,44.3
			C131.8,96.6,112,116.5,87.6,116.5z M87.6,31.2c-22.6,0-41,18.4-41,41c0,22.6,18.4,41,41,41c22.6,0,41-18.4,41-41
			C128.6,49.6,110.2,31.2,87.6,31.2z"/>
	</g>
	<g>
		<path fill="#FFD552" d="M87.6,109.3c-20.5,0-37.1-16.7-37.1-37.1s16.7-37.1,37.1-37.1c20.5,0,37.1,16.7,37.1,37.1
			S108.1,109.3,87.6,109.3L87.6,109.3z"/>
	</g>
	<g>
		<rect x="25.2" y="195.1" fill="#4A555F" width="3.3" height="48.4"/>
	</g>
	<g>
		<path fill="#4A555F" d="M95.6,147H79.5l-8-22.7h32.2L95.6,147z M81.8,143.7h11.5l5.7-16.2H76.1L81.8,143.7z"/>
	</g>
	<g>
		<polygon fill="#4A555F" points="104.4,243.6 101.2,243.2 102.2,235.7 93,147 82.2,147 73.2,233.1 74.5,243.2 71.3,243.6 
			69.9,233.1 69.9,232.9 79.2,143.7 95.9,143.7 105.5,235.7 		"/>
	</g>
	<g>
		<path fill="#4A555F" d="M60.1,154.8l-5.7-41.6H71l7.6,21.5L60.1,154.8z M58.2,116.5l4.2,31l12.5-13.6l-6.2-17.4H58.2z"/>
	</g>
	<g>
		<path fill="#4A555F" d="M116.4,155.9l-19.8-21.2l7.6-21.5h18L116.4,155.9z M100.3,133.9l13.7,14.8l4.4-32.2h-11.9L100.3,133.9z"/>
	</g>
	<g>
		
			<rect x="-0.2" y="177.5" transform="matrix(0.1276 0.9918 -0.9918 0.1276 234.022 92.1816)" fill="#4A555F" width="129.7" height="3.3"/>
	</g>
	<g>
		
			<rect x="109.9" y="114.2" transform="matrix(0.9909 0.1346 -0.1346 0.9909 25.1261 -13.3852)" fill="#4A555F" width="3.3" height="129.8"/>
	</g>
	<g>
		<path fill="#4A555F" d="M3.3,243.4H0v-77.6c0-29,23.6-52.6,52.6-52.6h69.8c29,0,52.6,23.6,52.6,52.6c0,12.6,10.3,22.9,22.9,22.9
			h23c13.6,0,24.6,11,24.6,24.6s-11,24.6-24.6,24.6h-40.2c-15.2,0-29.2-8.9-35.6-22.8l-9.2-20.1l3-1.4l9.2,20.1
			c5.8,12.7,18.6,20.9,32.6,20.9H221c11.8,0,21.3-9.6,21.3-21.3c0-11.8-9.6-21.3-21.3-21.3h-23c-14.4,0-26.2-11.7-26.2-26.2
			c0-27.2-22.1-49.4-49.4-49.4H52.6c-27.2,0-49.4,22.1-49.4,49.4V243.4z"/>
	</g>
	<g>
		<rect x="143.5" y="211" fill="#4A555F" width="3.3" height="32.4"/>
	</g>
	<g>
		<path fill="#4A555F" d="M235.3,183.5h-25.4c-11.4,0-20.7-9.3-20.7-20.7c0-2.6,0.5-5.1,1.4-7.5l18.6-58.4H236l18.6,58.5
			c0.9,2.3,1.4,4.9,1.4,7.4C256,174.2,246.7,183.5,235.3,183.5z M211.6,100.1l-17.9,56.3c-0.8,2.1-1.2,4.3-1.2,6.5
			c0,9.6,7.8,17.4,17.4,17.4h25.4c9.6,0,17.4-7.8,17.4-17.4c0-2.2-0.4-4.3-1.2-6.4l-17.9-56.4H211.6z"/>
	</g>
	<g>
		<path fill="#FFD552" d="M248,157.8l-0.1-0.2l-17.1-53.8h-16.4l-17.1,53.8l-0.1,0.2c-0.6,1.6-0.9,3.3-0.9,5
			c0,7.5,6.1,13.6,13.6,13.6h25.4c7.5,0,13.6-6.1,13.6-13.6C248.9,161.1,248.6,159.4,248,157.8z M222.6,164.8
			c-8.4,0-15.2-6.8-15.2-15.2c0-8.4,6.8-15.2,15.2-15.2c8.4,0,15.2,6.8,15.2,15.2C237.9,157.9,231,164.8,222.6,164.8z"/>
	</g>
	<g>
		<path fill="#4A555F" d="M235.4,86.3h-25.5l-14.4-32h54.3L235.4,86.3z M212,83h21.3l11.5-25.5h-44.2L212,83z"/>
	</g>
	<g>
		<polygon fill="#FFD552" points="214.5,79.2 206.4,61.3 238.8,61.3 230.8,79.2 		"/>
	</g>
	<g>
		<path fill="#4A555F" d="M222.6,166.4c-9.3,0-16.9-7.6-16.9-16.9s7.6-16.9,16.9-16.9s16.9,7.6,16.9,16.9S231.9,166.4,222.6,166.4z
			 M222.6,135.9c-7.5,0-13.6,6.1-13.6,13.6s6.1,13.6,13.6,13.6c7.5,0,13.6-6.1,13.6-13.6S230.1,135.9,222.6,135.9z"/>
	</g>
	<g>
		<g>
			<path fill="#4A555F" d="M222.6,158.3c-2.9,0-5.3-2.4-5.3-5.3h3.3c0,1.1,0.9,2,2,2c1.1,0,2-0.9,2-2c0-0.9-0.8-1.7-1.7-1.7h-0.6
				c-2.7,0-5-2.2-5-5V146c0-2.9,2.4-5.3,5.3-5.3c2.9,0,5.3,2.4,5.3,5.3l-3.3,0.1V146c0-1.1-0.9-2-2-2c-1.1,0-2,0.9-2,2v0.3
				c0,0.9,0.8,1.7,1.7,1.7h0.6c2.7,0,5,2.2,5,5C227.9,155.9,225.5,158.3,222.6,158.3z"/>
		</g>
		<g>
			<rect x="221" y="139.1" fill="#4A555F" width="3.3" height="3.3"/>
		</g>
		<g>
			<rect x="221" y="156.6" fill="#4A555F" width="3.3" height="3.3"/>
		</g>
	</g>
	<g>
		<path fill="#4A555F" d="M224.3,41.7H221v-3.3h3.3V41.7z M224.3,35.2H221v-3.3h3.3V35.2z M224.3,28.7H221v-3.3h3.3V28.7z
			 M224.3,22.1H221v-3.3h3.3V22.1z M224.3,15.6H221v-3.3h3.3V15.6z"/>
	</g>
	<g>
		
			<rect x="245.5" y="23.9" transform="matrix(0.9175 0.3978 -0.3978 0.9175 33.8809 -95.5314)" fill="#4A555F" width="3.3" height="19.9"/>
	</g>
	<g>
		
			<rect x="189.3" y="32.8" transform="matrix(0.4187 0.9081 -0.9081 0.4187 146.7689 -160.4402)" fill="#4A555F" width="18.9" height="3.3"/>
	</g>
	<g>
		<rect x="210.4" y="90.2" fill="#4A555F" width="25" height="3.3"/>
	</g>
</g>
</svg>
