<?xml version="1.0" encoding="utf-8"?>
<!-- Generator: Adobe Illustrator 18.0.0, SVG Export Plug-In . SVG Version: 6.00 Build 0)  -->
<!DOCTYPE svg PUBLIC "-//W3C//DTD SVG 1.1//EN" "http://www.w3.org/Graphics/SVG/1.1/DTD/svg11.dtd">
<svg version="1.1" id="Layer_1" xmlns="http://www.w3.org/2000/svg" xmlns:xlink="http://www.w3.org/1999/xlink" x="0px" y="0px"
	 width="256px" height="256px" viewBox="0 0 256 256" enable-background="new 0 0 256 256" xml:space="preserve">
<g>
	<g>
		<g>
			<g>
				<g>
					<g>
						<path fill="#E0E0E0" d="M59,204.1V215c-2.6,2.1-5.6,3.8-8.9,4.9l3.3-24.6C56.8,196.9,59,200.3,59,204.1z"/>
					</g>
				</g>
				<g>
					<g>
						<path fill="#E0E0E0" d="M29.9,220.4c-3.9-1.2-7.4-3.1-10.5-5.6v-10.8c0-3.6,3-7.3,7.1-8.9L29.9,220.4z"/>
					</g>
				</g>
				<g>
					<g>
						<path fill="#4A555F" d="M39.9,190.9c-7.8,0-14.1-6.3-14.1-14.1s6.3-14.1,14.1-14.1S54,169,54,176.8S47.7,190.9,39.9,190.9z
							 M39.9,165.7c-6.1,0-11.1,5-11.1,11.1s5,11.1,11.1,11.1s11.1-5,11.1-11.1S46.1,165.7,39.9,165.7z"/>
					</g>
					<g>
						<path fill="#FFD552" d="M39.9,184.4c-4.2,0-7.6-3.4-7.6-7.6c0-4.2,3.4-7.6,7.6-7.6c4.2,0,7.6,3.4,7.6,7.6
							C47.6,181,44.1,184.4,39.9,184.4z"/>
					</g>
					<g>
						<path fill="#4A555F" d="M65.5,210h-3v-5.5c0-7.4-6-13.5-13.4-13.6H29.6c-7.5,0-13.6,6.1-13.6,13.6v5.5h-3v-5.5
							c0-9.1,7.4-16.6,16.6-16.6h19.5c9,0.1,16.4,7.5,16.4,16.6V210z"/>
					</g>
					<g>
						<path fill="#4A555F" d="M33.3,221.7L29,187.9h5.4l4.9,6l-5.4,9.4l2.3,18L33.3,221.7z M32.4,190.9l1,7.5l2.4-4.2l-2.7-3.3H32.4
							z"/>
					</g>
					<g>
						<path fill="#4A555F" d="M46.5,221.5l-3-0.4l2.3-17.9l-4.9-9.6l4.9-5.7h5L46.5,221.5z M44.5,194l2,3.9l0.9-7.1h-0.2L44.5,194z"
							/>
					</g>
					<g>
						<rect x="38.5" y="196.9" fill="#4A555F" width="3" height="24.9"/>
					</g>
					<g>
						<polygon fill="#4A555F" points="40,199.2 36.4,195 38.7,193.1 40,194.6 41.6,192.8 43.8,194.8 						"/>
					</g>
				</g>
			</g>
			<g>
				<path fill="#4A555F" d="M39.3,223.3C20.9,223.3,6,208.4,6,190s14.9-33.3,33.3-33.3s33.3,14.9,33.3,33.3S57.7,223.3,39.3,223.3z
					 M39.3,159.6C22.6,159.6,9,173.3,9,190s13.6,30.3,30.3,30.3s30.3-13.6,30.3-30.3S56,159.6,39.3,159.6z"/>
			</g>
			<g>
				<g>
					<g>
						<path fill="#E0E0E0" d="M236.4,204.1V215c-2.6,2.1-5.6,3.8-8.9,4.9l3.3-24.6C234.2,196.9,236.4,200.3,236.4,204.1z"/>
					</g>
				</g>
				<g>
					<g>
						<path fill="#E0E0E0" d="M207.3,220.4c-3.9-1.2-7.4-3.1-10.5-5.6v-10.8c0-3.6,3-7.3,7.1-8.9L207.3,220.4z"/>
					</g>
				</g>
				<g>
					<g>
						<path fill="#4A555F" d="M217.4,190.9c-7.8,0-14.1-6.3-14.1-14.1s6.3-14.1,14.1-14.1s14.1,6.3,14.1,14.1
							S225.1,190.9,217.4,190.9z M217.4,165.7c-6.1,0-11.1,5-11.1,11.1s5,11.1,11.1,11.1s11.1-5,11.1-11.1S223.5,165.7,217.4,165.7z
							"/>
					</g>
					<g>
						<path fill="#FFD552" d="M217.4,184.4c-4.2,0-7.6-3.4-7.6-7.6c0-4.2,3.4-7.6,7.6-7.6s7.6,3.4,7.6,7.6
							C225,181,221.6,184.4,217.4,184.4z"/>
					</g>
					<g>
						<path fill="#4A555F" d="M243,210h-3v-5.5c0-7.4-6-13.5-13.4-13.6H207c-7.5,0-13.6,6.1-13.6,13.6v5.5h-3v-5.5
							c0-9.1,7.4-16.6,16.6-16.6h19.5c9,0.1,16.4,7.5,16.4,16.6V210z"/>
					</g>
					<g>
						<path fill="#4A555F" d="M210.8,221.7l-4.3-33.8h5.4l4.9,6l-5.4,9.4l2.3,18L210.8,221.7z M209.8,190.9l1,7.5l2.4-4.2l-2.7-3.3
							H209.8z"/>
					</g>
					<g>
						<path fill="#4A555F" d="M223.9,221.5l-3-0.4l2.3-17.9l-4.9-9.6l4.9-5.7h5L223.9,221.5z M221.9,194l2,3.9l0.9-7.1h-0.2
							L221.9,194z"/>
					</g>
					<g>
						<rect x="215.9" y="196.9" fill="#4A555F" width="3" height="24.9"/>
					</g>
					<g>
						<polygon fill="#4A555F" points="217.4,199.2 213.8,195 216.1,193.1 217.4,194.6 219,192.8 221.3,194.8 						"/>
					</g>
				</g>
			</g>
			<g>
				<path fill="#4A555F" d="M216.7,223.3c-18.4,0-33.3-14.9-33.3-33.3s14.9-33.3,33.3-33.3S250,171.6,250,190
					S235.1,223.3,216.7,223.3z M216.7,159.6c-16.7,0-30.3,13.6-30.3,30.3s13.6,30.3,30.3,30.3S247,206.7,247,190
					S233.4,159.6,216.7,159.6z"/>
			</g>
		</g>
		<g>
			<g>
				<g>
					<path fill="#E0E0E0" d="M59,84.8v10.9c-2.6,2.1-5.6,3.8-8.9,4.9L53.5,76C56.8,77.6,59,81,59,84.8z"/>
				</g>
			</g>
			<g>
				<g>
					<path fill="#E0E0E0" d="M29.9,101.1c-3.9-1.2-7.4-3.1-10.5-5.6V84.8c0-3.6,3-7.3,7.1-8.9L29.9,101.1z"/>
				</g>
			</g>
			<g>
				<g>
					<path fill="#4A555F" d="M39.9,71.6c-7.8,0-14.1-6.3-14.1-14.1s6.3-14.1,14.1-14.1S54,49.7,54,57.5S47.7,71.6,39.9,71.6z
						 M39.9,46.4c-6.1,0-11.1,5-11.1,11.1s5,11.1,11.1,11.1s11.1-5,11.1-11.1S46.1,46.4,39.9,46.4z"/>
				</g>
				<g>
					<path fill="#FFD552" d="M39.9,65.1c-4.2,0-7.6-3.4-7.6-7.6c0-4.2,3.4-7.6,7.6-7.6c4.2,0,7.6,3.4,7.6,7.6
						C47.6,61.7,44.1,65.1,39.9,65.1z"/>
				</g>
				<g>
					<path fill="#4A555F" d="M65.5,90.7h-3v-5.5c0-7.4-6-13.5-13.4-13.6H29.6c-7.5,0-13.6,6.1-13.6,13.6v5.5h-3v-5.5
						c0-9.1,7.4-16.6,16.6-16.6h19.5c9,0.1,16.4,7.5,16.4,16.6V90.7z"/>
				</g>
				<g>
					<path fill="#4A555F" d="M33.3,102.4L29,68.6h5.4l4.9,6L34,84l2.3,18L33.3,102.4z M32.4,71.6l1,7.5l2.4-4.2L33,71.6H32.4z"/>
				</g>
				<g>
					<path fill="#4A555F" d="M46.5,102.2l-3-0.4l2.3-17.9l-4.9-9.6l4.9-5.7h5L46.5,102.2z M44.5,74.8l2,3.9l0.9-7.1h-0.2L44.5,74.8z
						"/>
				</g>
				<g>
					<rect x="38.5" y="77.6" fill="#4A555F" width="3" height="24.9"/>
				</g>
				<g>
					<polygon fill="#4A555F" points="40,79.9 36.4,75.7 38.7,73.8 40,75.4 41.6,73.6 43.8,75.6 					"/>
				</g>
			</g>
			<g>
				<path fill="#4A555F" d="M39.3,104C20.9,104,6,89.1,6,70.7s14.9-33.3,33.3-33.3s33.3,14.9,33.3,33.3S57.7,104,39.3,104z
					 M39.3,40.4C22.6,40.4,9,54,9,70.7s13.6,30.3,30.3,30.3s30.3-13.6,30.3-30.3S56,40.4,39.3,40.4z"/>
			</g>
			<g>
				<g>
					<path fill="#E0E0E0" d="M236.4,84.8v10.9c-2.6,2.1-5.6,3.8-8.9,4.9l3.3-24.6C234.2,77.6,236.4,81,236.4,84.8z"/>
				</g>
			</g>
			<g>
				<g>
					<path fill="#E0E0E0" d="M207.3,101.1c-3.9-1.2-7.4-3.1-10.5-5.6V84.8c0-3.6,3-7.3,7.1-8.9L207.3,101.1z"/>
				</g>
			</g>
			<g>
				<g>
					<path fill="#4A555F" d="M217.4,71.6c-7.8,0-14.1-6.3-14.1-14.1s6.3-14.1,14.1-14.1s14.1,6.3,14.1,14.1S225.1,71.6,217.4,71.6z
						 M217.4,46.4c-6.1,0-11.1,5-11.1,11.1s5,11.1,11.1,11.1s11.1-5,11.1-11.1S223.5,46.4,217.4,46.4z"/>
				</g>
				<g>
					<path fill="#FFD552" d="M217.4,65.1c-4.2,0-7.6-3.4-7.6-7.6c0-4.2,3.4-7.6,7.6-7.6s7.6,3.4,7.6,7.6
						C225,61.7,221.6,65.1,217.4,65.1z"/>
				</g>
				<g>
					<path fill="#4A555F" d="M243,90.7h-3v-5.5c0-7.4-6-13.5-13.4-13.6H207c-7.5,0-13.6,6.1-13.6,13.6v5.5h-3v-5.5
						c0-9.1,7.4-16.6,16.6-16.6h19.5c9,0.1,16.4,7.5,16.4,16.6V90.7z"/>
				</g>
				<g>
					<path fill="#4A555F" d="M210.8,102.4l-4.3-33.8h5.4l4.9,6l-5.4,9.4l2.3,18L210.8,102.4z M209.8,71.6l1,7.5l2.4-4.2l-2.7-3.3
						H209.8z"/>
				</g>
				<g>
					<path fill="#4A555F" d="M223.9,102.2l-3-0.4l2.3-17.9l-4.9-9.6l4.9-5.7h5L223.9,102.2z M221.9,74.8l2,3.9l0.9-7.1h-0.2
						L221.9,74.8z"/>
				</g>
				<g>
					<rect x="215.9" y="77.6" fill="#4A555F" width="3" height="24.9"/>
				</g>
				<g>
					<polygon fill="#4A555F" points="217.4,79.9 213.8,75.7 216.1,73.8 217.4,75.4 219,73.6 221.3,75.6 					"/>
				</g>
			</g>
			<g>
				<path fill="#4A555F" d="M216.7,104c-18.4,0-33.3-14.9-33.3-33.3s14.9-33.3,33.3-33.3S250,52.3,250,70.7S235.1,104,216.7,104z
					 M216.7,40.4c-16.7,0-30.3,13.6-30.3,30.3s13.6,30.3,30.3,30.3S247,87.4,247,70.7S233.4,40.4,216.7,40.4z"/>
			</g>
		</g>
		<g>
			<g>
				<g>
					<g>
						<path fill="#E0E0E0" d="M147.7,236.8v10.9c-2.6,2.1-5.6,3.8-8.9,4.9l3.3-24.6C145.5,229.6,147.7,233,147.7,236.8z"/>
					</g>
				</g>
				<g>
					<g>
						<path fill="#E0E0E0" d="M118.6,253.1c-3.9-1.2-7.4-3.1-10.5-5.6v-10.8c0-3.6,3-7.3,7.1-8.9L118.6,253.1z"/>
					</g>
				</g>
				<g>
					<g>
						<path fill="#4A555F" d="M128.6,223.6c-7.8,0-14.1-6.3-14.1-14.1s6.3-14.1,14.1-14.1s14.1,6.3,14.1,14.1
							S136.4,223.6,128.6,223.6z M128.6,198.4c-6.1,0-11.1,5-11.1,11.1s5,11.1,11.1,11.1c6.1,0,11.1-5,11.1-11.1
							S134.8,198.4,128.6,198.4z"/>
					</g>
					<g>
						<path fill="#FFD552" d="M128.6,217.1c-4.2,0-7.6-3.4-7.6-7.6c0-4.2,3.4-7.6,7.6-7.6c4.2,0,7.6,3.4,7.6,7.6
							C136.3,213.7,132.9,217.1,128.6,217.1z"/>
					</g>
					<g>
						<path fill="#4A555F" d="M154.3,242.7h-3v-5.5c0-7.4-6-13.5-13.4-13.6h-19.5c-7.5,0-13.6,6.1-13.6,13.6v5.5h-3v-5.5
							c0-9.1,7.4-16.6,16.6-16.6h19.5c9,0.1,16.4,7.5,16.4,16.6V242.7z"/>
					</g>
					<g>
						<path fill="#4A555F" d="M123.6,255.7h-1.3l-0.2-1.3l-4.3-33.8h5.4l4.9,6l-5.4,9.4l2.3,18l-1.5,0.2L123.6,255.7z M121.1,223.6
							l1,7.5l2.4-4.2l-2.7-3.3H121.1z"/>
					</g>
					<g>
						<path fill="#4A555F" d="M135.2,254.2l-3-0.4l2.3-17.9l-4.9-9.6l4.9-5.7h5L135.2,254.2z M133.2,226.7l2,4l0.9-7.1h-0.2
							L133.2,226.7z"/>
					</g>
					<g>
						<rect x="127.2" y="229.6" fill="#4A555F" width="3" height="24.9"/>
					</g>
					<g>
						<polygon fill="#4A555F" points="128.7,231.9 125.1,227.7 127.4,225.8 128.7,227.3 130.3,225.5 132.5,227.5 						"/>
					</g>
				</g>
			</g>
			<g>
				<path fill="#4A555F" d="M128,256c-18.4,0-33.3-14.9-33.3-33.3s14.9-33.3,33.3-33.3s33.3,14.9,33.3,33.3S146.4,256,128,256z
					 M128,192.3c-16.7,0-30.3,13.6-30.3,30.3S111.3,253,128,253s30.3-13.6,30.3-30.3S144.7,192.3,128,192.3z"/>
			</g>
			<g>
				<g>
					<path fill="#E0E0E0" d="M147.7,47.4v10.9c-2.6,2.1-5.6,3.8-8.9,4.9l3.3-24.6C145.5,40.2,147.7,43.6,147.7,47.4z"/>
				</g>
			</g>
			<g>
				<g>
					<path fill="#E0E0E0" d="M118.6,63.7c-3.9-1.2-7.4-3.1-10.5-5.6V47.4c0-3.6,3-7.3,7.1-8.9L118.6,63.7z"/>
				</g>
			</g>
			<g>
				<g>
					<path fill="#4A555F" d="M128.6,34.2c-7.8,0-14.1-6.3-14.1-14.1S120.9,6,128.6,6s14.1,6.3,14.1,14.1S136.4,34.2,128.6,34.2z
						 M128.6,9c-6.1,0-11.1,5-11.1,11.1s5,11.1,11.1,11.1c6.1,0,11.1-5,11.1-11.1S134.8,9,128.6,9z"/>
				</g>
				<g>
					<path fill="#FFD552" d="M128.6,27.8c-4.2,0-7.6-3.4-7.6-7.6c0-4.2,3.4-7.6,7.6-7.6c4.2,0,7.6,3.4,7.6,7.6
						C136.3,24.3,132.9,27.8,128.6,27.8z"/>
				</g>
				<g>
					<path fill="#4A555F" d="M154.3,53.3h-3v-5.5c0-7.4-6-13.5-13.4-13.6h-19.5c-7.5,0-13.6,6.1-13.6,13.6v5.5h-3v-5.5
						c0-9.1,7.4-16.6,16.6-16.6h19.5c9,0.1,16.4,7.5,16.4,16.6V53.3z"/>
				</g>
				<g>
					<path fill="#4A555F" d="M123.6,66.3h-1.3l-0.2-1.3l-4.3-33.8h5.4l4.9,6l-5.4,9.4l2.3,18l-1.5,0.2L123.6,66.3z M121.1,34.2
						l1,7.5l2.4-4.2l-2.7-3.3H121.1z"/>
				</g>
				<g>
					<path fill="#4A555F" d="M135.2,64.8l-3-0.4l2.3-17.9l-4.9-9.6l4.9-5.7h5L135.2,64.8z M133.2,37.4l2,4l0.9-7.1h-0.2L133.2,37.4z
						"/>
				</g>
				<g>
					<rect x="127.2" y="40.2" fill="#4A555F" width="3" height="24.9"/>
				</g>
				<g>
					<polygon fill="#4A555F" points="128.7,42.5 125.1,38.3 127.4,36.4 128.7,38 130.3,36.2 132.5,38.2 					"/>
				</g>
			</g>
			<g>
				<path fill="#4A555F" d="M128,66.6c-18.4,0-33.3-14.9-33.3-33.3S109.6,0,128,0s33.3,14.9,33.3,33.3S146.4,66.6,128,66.6z M128,3
					c-16.7,0-30.3,13.6-30.3,30.3s13.6,30.3,30.3,30.3s30.3-13.6,30.3-30.3S144.7,3,128,3z"/>
			</g>
		</g>
	</g>
	<g>
		<g>
			<path fill="#4A555F" d="M128,165.7c-20.8,0-37.7-16.9-37.7-37.7s16.9-37.7,37.7-37.7c20.8,0,37.7,16.9,37.7,37.7
				S148.8,165.7,128,165.7z M128,93.2c-19.2,0-34.8,15.6-34.8,34.8s15.6,34.8,34.8,34.8c19.2,0,34.8-15.6,34.8-34.8
				S147.2,93.2,128,93.2z"/>
		</g>
		<g>
			<path fill="#FFD552" d="M128,159.3c-17.2,0-31.3-14-31.3-31.3s14-31.3,31.3-31.3c17.2,0,31.3,14,31.3,31.3S145.2,159.3,128,159.3
				z"/>
		</g>
	</g>
	<g>
		<rect x="127.4" y="65.1" fill="#4A555F" width="3" height="15.3"/>
	</g>
	<g>
		<rect x="127.4" y="175.1" fill="#4A555F" width="3" height="15.3"/>
	</g>
	<g>
		
			<rect x="181.4" y="84.4" transform="matrix(0.5539 0.8326 -0.8326 0.5539 158.1984 -111.1887)" fill="#4A555F" width="3" height="15.3"/>
	</g>
	<g>
		
			<rect x="69.9" y="157.8" transform="matrix(0.5539 0.8326 -0.8326 0.5539 169.581 14.33)" fill="#4A555F" width="3" height="15.3"/>
	</g>
	<g>
		
			<rect x="176.2" y="164.9" transform="matrix(0.8325 0.554 -0.554 0.8325 122.9815 -73.9842)" fill="#4A555F" width="15.3" height="3"/>
	</g>
	<g>
		
			<rect x="64.8" y="91.5" transform="matrix(0.8325 0.554 -0.554 0.8325 63.6736 -24.5345)" fill="#4A555F" width="15.3" height="3"/>
	</g>
	<g>
		<polygon fill="#4A555F" points="122.4,185 120.1,183 128.9,172.8 137.3,182.8 135,184.7 128.8,177.4 		"/>
	</g>
	<g>
		<polygon fill="#4A555F" points="128.7,83.5 120.3,73.5 122.5,71.6 128.7,78.9 135.2,71.3 137.4,73.3 		"/>
	</g>
	<g>
		<polygon fill="#4A555F" points="76.9,171.9 74,171.1 76.6,161.9 66.8,160.8 67.1,157.8 80.5,159.3 		"/>
	</g>
	<g>
		<polygon fill="#4A555F" points="187.5,99.3 174.1,97.8 177.7,85.2 180.6,86.1 178,95.3 187.9,96.4 		"/>
	</g>
	<g>
		<polygon fill="#4A555F" points="67.1,100.2 66.8,97.3 76.6,96.1 74,86.9 76.9,86.1 80.5,98.7 		"/>
	</g>
	<g>
		<polygon fill="#4A555F" points="177.7,172.8 174.1,160.2 187.5,158.7 187.9,161.7 178,162.8 180.6,172 		"/>
	</g>
	<g>
		<g>
			<path fill="#4A555F" d="M128.9,142.6c-4.9,0-8.8-4-8.8-8.8h3c0,3.2,2.6,5.8,5.8,5.8c3.2,0,5.8-2.6,5.8-5.8c0-2.9-2.4-5.2-5.2-5.2
				h-1.2c-4.5,0-8.2-3.7-8.2-8.2v-0.5c0-4.9,4-8.8,8.8-8.8c4.9,0,8.8,4,8.8,8.8v0.1h-3v-0.1c0-3.2-2.6-5.8-5.8-5.8
				c-3.2,0-5.8,2.6-5.8,5.8v0.5c0,2.9,2.4,5.2,5.2,5.2h1.2c4.5,0,8.2,3.7,8.2,8.2C137.7,138.6,133.7,142.6,128.9,142.6z"/>
		</g>
		<g>
			<rect x="127.4" y="105.8" fill="#4A555F" width="3" height="6.6"/>
		</g>
		<g>
			<rect x="127.4" y="141.1" fill="#4A555F" width="3" height="6.6"/>
		</g>
	</g>
</g>
</svg>
