<?xml version="1.0" encoding="iso-8859-1"?>
<!-- Generator: Adobe Illustrator 19.0.0, SVG Export Plug-In . SVG Version: 6.00 Build 0)  -->
<svg version="1.1" id="Capa_1" xmlns="http://www.w3.org/2000/svg" xmlns:xlink="http://www.w3.org/1999/xlink" x="0px" y="0px"
	 viewBox="0 0 512.001 512.001" style="enable-background:new 0 0 512.001 512.001;" xml:space="preserve">
<path style="fill:#FAEBC8;" d="M360.173,185.499c-0.638,0-1.298-0.026-2.077-0.081l-8.799-0.625l1.479-8.696
	c0.48-2.828,0.725-5.553,0.725-8.098c0-9.972-1.56-19.809-4.635-29.235l-2.584-7.921l8.019-2.261c2.552-0.719,5.2-1.084,7.873-1.084
	c15.99,0,29,13.009,29,29c0,0.457-0.011,0.915-0.033,1.375c2.704-8.861,10.849-15.028,20.36-15.028
	c11.76,0,21.327,9.567,21.327,21.327c0,11.76-9.567,21.327-21.327,21.327H360.173z"/>
<path style="fill:#EFD0A3;" d="M360.154,127.499c-2.667,0.002-5.309,0.366-7.855,1.083l-8.019,2.261l2.584,7.921
	c3.075,9.426,4.635,19.263,4.635,29.235c0,2.545-0.244,5.27-0.725,8.098l-1.479,8.696l8.799,0.625
	c0.779,0.055,1.439,0.081,2.077,0.081h8.268c1.384-5.064,2.154-9.963,2.154-14.607C370.594,155.277,366.827,140.526,360.154,127.499
	z"/>
<path style="fill:#FAEBC8;" d="M434.174,118.498c-15.99,0-29-13.009-29-29s13.01-29,29-29c15.99,0,29,13.009,29,29
	c0,0.457-0.011,0.915-0.033,1.375c2.704-8.861,10.849-15.028,20.36-15.028c11.76,0,21.327,9.567,21.327,21.327
	s-9.567,21.327-21.327,21.327L434.174,118.498L434.174,118.498z"/>
<path style="fill:#EFD0A3;" d="M432.189,89.498c0-11.115,6.289-20.784,15.492-25.65c-4.037-2.135-8.632-3.35-13.508-3.35
	c-15.99,0-29,13.009-29,29s13.01,29,29,29h27.016C445.199,118.498,432.189,105.488,432.189,89.498z"/>
<path style="fill:#FAEBC8;" d="M53.189,113.498c-12.958,0-23.5-10.542-23.5-23.5s10.542-23.5,23.5-23.5s23.5,10.542,23.5,23.5
	c0,0.144-0.001,0.288-0.004,0.433c2.385-6.842,8.826-11.548,16.312-11.548c9.543,0,17.308,7.764,17.308,17.308
	s-7.765,17.308-17.308,17.308L53.189,113.498L53.189,113.498z"/>
<path style="fill:#EFD0A3;" d="M55.189,90.998c0-8.584,4.628-16.104,11.518-20.205c-3.827-2.702-8.488-4.295-13.518-4.295
	c-12.958,0-23.5,10.542-23.5,23.5s10.542,23.5,23.5,23.5h18.724C62.249,110.581,55.189,101.6,55.189,90.998z"/>
<path style="fill:#ABAAB0;" d="M6.998,395.698l-0.501,33.586c0,12.25,9.966,22.216,22.216,22.216h453.572
	c12.25,0,22.216-9.966,22.216-22.216l0.498-33.389L6.998,395.698z"/>
<path style="fill:#5B5D6E;" d="M25.239,413.5c-5.841,0-11.184-2.636-14.658-7.233c-3.359-4.443-4.421-10.048-2.911-15.379
	l46.431-163.817c2.181-7.697,9.405-13.073,17.568-13.073h368.658c8.164,0,15.388,5.377,17.568,13.076l46.432,163.814
	c1.51,5.332,0.448,10.938-2.912,15.381c-3.474,4.595-8.816,7.231-14.657,7.231H25.239z"/>
<g>
	<path style="fill:#3E404F;" d="M256.999,303.763l1.702-7.045c1.658-6.864,10.372-44.343,12.692-82.719H87.792
		c2.622,10.881,7.207,21.477,13.868,31.263c26.927,39.562,135.83,55.781,148.16,57.5L256.999,303.763z"/>
	<path style="fill:#3E404F;" d="M431.652,343c-4.454,0-8.383-3.157-9.343-7.506l-11.8-53.557c-0.637-2.896,0.079-5.865,1.964-8.149
		c1.828-2.211,4.514-3.477,7.372-3.477l0.287,0.004l14.263,0.389c4.244,0.116,7.848,2.946,8.968,7.041l14.497,53.171
		c0.791,2.908,0.196,5.941-1.631,8.329c-1.826,2.386-4.596,3.754-7.599,3.754L431.652,343L431.652,343z"/>
</g>
<polygon style="fill:#B4E66E;" points="374.6,234 108.406,234 73.876,392 406.109,392 "/>
<g>
	<path style="fill:#90C639;" d="M218.046,366.328l-24.318-22.123c-0.255-0.232-0.525-0.436-0.802-0.626
		c1.764-6.045,0.113-12.844-4.851-17.359l-3.833-3.487c-6.934-6.308-17.707-5.799-24.015,1.135
		c-6.308,6.934-5.799,17.707,1.135,24.015l3.833,3.487c4.964,4.516,11.888,5.519,17.74,3.192c0.216,0.257,0.444,0.507,0.699,0.739
		l24.318,22.123c3.064,2.787,7.807,2.564,10.595-0.501C221.334,373.858,221.11,369.115,218.046,366.328z"/>
	<path style="fill:#90C639;" d="M249.82,302.761l7.178,1.001l1.702-7.045c1.367-5.656,7.527-32.109,10.95-62.719H108.406
		l-3.403,15.571C136.555,286.005,237.949,301.106,249.82,302.761z"/>
</g>
<polygon style="fill:#FFDC64;" points="393.246,327.5 383.075,276.499 284.101,276.499 229.897,276.499 183.863,276.499 
	192.344,234 140.339,234 131.859,276.499 99.117,276.499 87.973,327.5 121.683,327.5 108.812,392 160.816,392 173.686,327.5 
	310.114,327.5 322.983,392 374.988,392 362.118,327.5 "/>
<g>
	<path style="fill:#EFC03C;" d="M188.075,326.218l-3.833-3.487c-6.934-6.308-17.707-5.799-24.015,1.135
		c-6.308,6.934-5.799,17.707,1.135,24.015l3.833,3.487c1.014,0.923,2.114,1.691,3.266,2.322l5.226-26.19h15.641
		C188.933,327.057,188.523,326.626,188.075,326.218z"/>
	<path style="fill:#EFC03C;" d="M249.82,302.761l7.178,1.001l1.702-7.045c0.646-2.675,2.365-10.003,4.358-20.218h-33.162h-46.033
		l8.48-42.5h-52.006l-7.188,36.029C175.707,291.827,240.478,301.459,249.82,302.761z"/>
</g>
<path style="fill:#FF507D;" d="M251.628,298.896c-9.226-8.358-90.13-83.042-90.13-130.897c0-52.66,42.841-95.501,95.501-95.501
	s95.501,42.841,95.501,95.501c0,47.856-80.904,122.539-90.13,130.897l-5.371,4.867L251.628,298.896z"/>
<path style="fill:#EF1846;" d="M301.373,201.756c21.993-23.344,21.944-60.34-0.106-83.629c-11.141-11.767-25.816-18.067-40.75-18.92
	c-4.472-0.255-7.701-4.377-6.877-8.78l2.398-12.805c0.505-2.696-1.664-5.129-4.402-4.977c-50.175,2.79-90.139,44.492-90.139,95.352
	c0,47.856,80.904,122.539,90.13,130.897l5.371,4.867l-8.506-74.616c-0.506-4.437,2.988-8.344,7.452-8.267
	C272.469,221.167,289.086,214.799,301.373,201.756z"/>
<path style="fill:#FFFFFF;" d="M256.999,198.499c-21.229,0-38.5-17.271-38.5-38.5s17.271-38.5,38.5-38.5s38.5,17.271,38.5,38.5
	S278.227,198.499,256.999,198.499z"/>
<path style="fill:#50C8A0;" d="M212.999,339.716c-9.374,0-17-7.626-17-17v-5.182c0-9.374,7.626-17,17-17s17,7.626,17,17v5.182
	C229.999,332.09,222.373,339.716,212.999,339.716z"/>
<path style="fill:#37AA8C;" d="M211.807,322.715v-5.182c0-6.521,3.695-12.188,9.096-15.038c-2.364-1.247-5.051-1.962-7.904-1.962
	c-9.374,0-17,7.626-17,17v5.182c0,9.374,7.626,17,17,17c2.853,0,5.54-0.714,7.904-1.962
	C215.501,334.904,211.807,329.237,211.807,322.715z"/>
<path style="fill:#50C8A0;" d="M116.998,192.499c-12.406,0-22.5-10.093-22.5-22.5v-12c0-12.407,10.094-22.5,22.5-22.5
	s22.5,10.093,22.5,22.5v12C139.498,182.405,129.404,192.499,116.998,192.499z"/>
<path style="fill:#37AA8C;" d="M113.73,169.999v-12c0-8.968,5.275-16.724,12.884-20.337c-2.918-1.385-6.177-2.163-9.616-2.163
	c-12.406,0-22.5,10.093-22.5,22.5v12c0,12.407,10.094,22.5,22.5,22.5c3.439,0,6.698-0.778,9.616-2.163
	C119.005,186.723,113.73,178.966,113.73,169.999z"/>
<path d="M153.661,436.269H73.798c-1.271,0-2.301-1.03-2.301-2.301v-6.596c0-1.271,1.03-2.301,2.301-2.301h79.863
	c1.271,0,2.301,1.03,2.301,2.301v6.596C155.962,435.239,154.932,436.269,153.661,436.269z"/>
<path d="M325.778,436.269h-29.839c-1.271,0-2.301-1.03-2.301-2.301v-6.596c0-1.271,1.03-2.301,2.301-2.301h29.839
	c1.271,0,2.301,1.03,2.301,2.301v6.596C328.079,435.239,327.049,436.269,325.778,436.269z"/>
<path d="M373.57,436.269h-29.839c-1.271,0-2.301-1.03-2.301-2.301v-6.596c0-1.271,1.03-2.301,2.301-2.301h29.839
	c1.271,0,2.301,1.03,2.301,2.301v6.596C375.871,435.239,374.841,436.269,373.57,436.269z"/>
<path d="M450.117,275.91c-1.936-7.098-8.177-12.002-15.531-12.202l-14.282-0.39c-5.124-0.145-9.953,2.05-13.224,6.009
	c-3.271,3.958-4.512,9.104-3.406,14.118v-0.001l11.8,53.554c1.658,7.534,8.463,13.003,16.179,13.003h16.979
	c5.207,0,10.006-2.373,13.166-6.511s4.187-9.392,2.816-14.414L450.117,275.91z M449.876,334.385
	c-0.215,0.281-0.604,0.616-1.245,0.616h-16.979c-0.729,0-1.373-0.517-1.53-1.229l-11.8-53.555v-0.001
	c-0.136-0.616,0.1-1.065,0.321-1.333c0.217-0.262,0.6-0.569,1.202-0.569c0.017,0,0.033,0,0.05,0l14.282,0.39
	c0.695,0.019,1.285,0.483,1.469,1.154l14.496,53.166C450.311,333.64,450.091,334.104,449.876,334.385z"/>
<path d="M302.499,159.999c0-25.089-20.411-45.5-45.5-45.5s-45.5,20.411-45.5,45.5s20.411,45.5,45.5,45.5
	S302.499,185.087,302.499,159.999z M226.499,159.999c0-16.818,13.683-30.5,30.5-30.5c16.817,0,30.5,13.682,30.5,30.5
	s-13.683,30.5-30.5,30.5S226.499,176.816,226.499,159.999z"/>
<path d="M434.174,125.499h49.327c15.62,0,28.327-12.708,28.327-28.327s-12.707-28.327-28.327-28.327
	c-6.229,0-12.015,1.989-16.713,5.417c-5.748-12.256-18.206-20.763-32.614-20.763c-19.851,0-36,16.149-36,36
	S414.323,125.499,434.174,125.499z M434.174,68.498c11.579,0,21,9.42,21,21c0,1.031-0.078,2.079-0.231,3.113
	c-0.575,3.879,1.935,7.547,5.76,8.415l0.603,0.137c2.02,0.458,4.141,0.061,5.857-1.1c1.718-1.16,2.878-2.979,3.207-5.024
	c1.042-6.486,6.564-11.194,13.132-11.194c7.349,0,13.327,5.979,13.327,13.327c0,7.349-5.979,13.327-13.327,13.327h-49.327
	c-11.579,0-21-9.42-21-21S422.595,68.498,434.174,68.498z"/>
<path d="M511.063,388.979l-6.566-23.165c-0.918-3.237-3.788-5.656-7.152-5.715c-5.047-0.089-8.723,4.712-7.354,9.544l6.64,23.426
	c0.001,0.014,0.002,0.035,0.002,0.048c-0.084,0.449-0.132,0.91-0.132,1.383v4.154c-0.329,0.984-0.814,1.927-1.466,2.789
	c-1.949,2.579-4.966,4.057-8.276,4.057H25.239c-3.311,0-6.327-1.479-8.276-4.057c-0.652-0.862-1.137-1.805-1.466-2.789v-6.043
	l46.302-163.359c1.21-4.271,5.27-7.254,9.871-7.254h37.827v5h-0.689c-3.525,0-6.574,2.455-7.327,5.899l-9.301,42.56
	c-0.003,0.016-0.007,0.031-0.01,0.046l-10.919,49.959c-0.003,0.013-0.006,0.026-0.009,0.039l-14.073,64.397
	c-0.67,3.068,0.632,6.329,3.503,8.059c1.205,0.726,2.615,1.042,4.022,1.042h330.614c1.389,0,2.781-0.308,3.975-1.018
	c2.85-1.694,4.18-4.899,3.571-7.949l-31.311-157.002c-0.7-3.508-3.778-6.033-7.355-6.033h-38.256c1.125-1.662,2.227-3.329,3.299-5
	h101.096c4.602,0,8.661,2.983,9.871,7.255l27.342,96.466c0.918,3.237,3.788,5.656,7.152,5.715c5.048,0.089,8.723-4.712,7.354-9.544
	l-27.416-96.727c-3.03-10.696-13.023-18.166-24.303-18.166h-92.352c2.61-5.019,4.865-10.013,6.674-14.927
	c1.82,0.281,3.664,0.427,5.523,0.427h48.724c15.414,0,28.46-12.062,28.917-27.469c0.476-16.009-12.41-29.185-28.314-29.185
	c-6.229,0-12.015,1.989-16.713,5.417c-5.748-12.256-18.206-20.763-32.614-20.763c-3.936,0-7.757,0.632-11.415,1.859
	c-16.818-33.674-51.629-56.86-91.759-56.86c-20.361,0-39.351,5.97-55.32,16.248c-4.029,2.593-4.651,8.238-1.263,11.626l0,0
	c2.502,2.502,6.401,2.896,9.377,0.982c13.627-8.766,29.833-13.856,47.205-13.856c48.248,0,87.501,39.252,87.501,87.501
	c0,37.848-59.126,99.26-87.501,124.969c-28.375-25.708-87.501-87.121-87.501-124.969c0-16.307,4.488-31.583,12.288-44.666
	c1.765-2.961,1.325-6.734-1.113-9.171l0,0c-3.446-3.446-9.231-2.752-11.731,1.432c-9.168,15.344-14.444,33.269-14.444,52.406
	c0,12.089,4.481,25.456,11.524,39h-41.524v-8.469c12.646-3.327,22-14.856,22-28.531v-11.372c0-16.052-12.562-29.638-28.607-30.114
	c-16.672-0.495-30.393,12.924-30.393,29.487v12c0,13.675,9.354,25.204,22,28.531v8.469H71.67c-11.279,0-21.272,7.47-24.303,18.165
	L1.338,387.558c-0.499,0.963-0.792,2.047-0.829,3.198c-0.679,3.292-0.673,6.625-0.012,9.833v28.697
	c0,16.135,13.08,29.216,29.216,29.216h452.572c16.135,0,29.216-13.08,29.216-29.216v-28.697
	C512.281,396.802,512.157,392.84,511.063,388.979z M360.173,135.499c11.579,0,21,9.42,21,21c0,1.031-0.078,2.079-0.231,3.113
	c-0.575,3.879,1.935,7.547,5.76,8.415l0.603,0.137c2.019,0.458,4.142,0.061,5.857-1.1c1.718-1.16,2.878-2.979,3.207-5.024
	c1.042-6.486,6.564-11.194,13.132-11.194c7.349,0,13.327,5.979,13.327,13.327c0,7.349-5.979,13.327-13.327,13.327h-49.327
	c-0.506,0-1.009-0.026-1.511-0.061c0.546-3.217,0.838-6.369,0.838-9.439c0-11.066-1.77-21.724-5.029-31.716
	C356.309,135.764,358.215,135.499,360.173,135.499z M103.27,384H83.813l10.818-49.5h18.515L103.27,384z M169.552,384l9.877-49.5
	h12.674c2.918,5.154,7.685,9.125,13.395,11.009v26.366c0,4.142,3.357,7.5,7.5,7.5c4.143,0,7.5-3.358,7.5-7.5v-26.366
	c5.71-1.884,10.477-5.855,13.395-11.009h70.478l9.877,49.5H169.552z M203.999,322.715v-5.182c0-4.962,4.037-9,9-9
	c4.963,0,9,4.038,9,9v5.182c0,4.53-3.368,8.279-7.73,8.9c-0.414-0.071-0.836-0.115-1.27-0.115c-0.434,0-0.856,0.045-1.27,0.115
	C207.367,330.996,203.999,327.246,203.999,322.715z M396.356,384H380.53l-9.877-49.5h15.831L396.356,384z M325.056,242h42.981
	l5.484,27.5h-71.765C309.487,261.081,317.522,251.762,325.056,242z M196.097,250.965c5.352,6.506,10.819,12.735,16.144,18.534
	h-19.842L196.097,250.965z M177.455,281.756c1.425,1.737,3.553,2.744,5.799,2.744h43.308c13.702,13.826,24.238,23.05,25.518,24.162
	c1.411,1.226,3.165,1.838,4.919,1.838c1.754,0,3.508-0.613,4.919-1.838c1.28-1.112,11.815-10.336,25.518-24.162h89.077l6.98,35
	H361.51c-2.246,0-4.374,1.007-5.799,2.744c-1.425,1.737-1.996,4.021-1.557,6.224l11.081,55.533h-35.688l-11.667-58.469
	c-0.7-3.507-3.779-6.032-7.355-6.032h-73.524v-1.966c0-13.233-10.767-24-24-24c-13.233,0-24,10.767-24,24v1.966h-15.721
	c-3.576,0-6.655,2.525-7.355,6.032l-11.667,58.469h-35.689l11.081-55.533c0.439-2.203-0.132-4.487-1.557-6.224
	s-3.553-2.744-5.799-2.744H97.909l7.649-35h26.71c3.576,0,6.655-2.525,7.355-6.032L146.901,242h35.688l-6.691,33.532
	C175.459,277.735,176.03,280.019,177.455,281.756z M174.766,221.999c1.072,1.671,2.174,3.338,3.299,5H140.75
	c-0.029,0-0.057,0-0.086,0h-16.166v-5H174.766z M102.498,169.999v-12c0-7.995,6.505-14.5,14.5-14.5s14.5,6.505,14.5,14.5v12
	c0,5.248-2.813,9.84-7,12.386v-12.386c0-4.142-3.357-7.5-7.5-7.5c-4.143,0-7.5,3.358-7.5,7.5v12.386
	C105.31,179.839,102.498,175.247,102.498,169.999z M114.847,242h16.758l-5.487,27.5h-17.28L114.847,242z M496.501,429.285
	c0,7.839-6.377,14.216-14.216,14.216H29.713c-7.839,0-14.216-6.377-14.216-14.216v-10.691c3.03,1.243,6.324,1.907,9.742,1.907
	h461.521c3.418,0,6.712-0.664,9.742-1.907V429.285z"/>
<path d="M53.189,120.498h39.808c13.403,0,24.308-10.904,24.308-24.308s-10.904-24.308-24.308-24.308
	c-4.738,0-9.18,1.342-12.936,3.697c-5.153-9.566-15.266-16.082-26.872-16.082c-16.817,0-30.5,13.682-30.5,30.5
	S36.372,120.498,53.189,120.498z M53.189,74.498c8.547,0,15.5,6.953,15.5,15.5c0,0.76-0.058,1.535-0.171,2.304
	c-0.573,3.877,1.935,7.541,5.756,8.41l0.485,0.11c2.024,0.46,4.144,0.063,5.86-1.098c1.718-1.16,2.879-2.979,3.208-5.025
	c0.728-4.529,4.584-7.817,9.169-7.817c5.132,0,9.308,4.175,9.308,9.308c0,5.133-4.176,9.308-9.308,9.308H53.189
	c-8.547,0-15.5-6.953-15.5-15.5S44.642,74.498,53.189,74.498z"/>
<g>
</g>
<g>
</g>
<g>
</g>
<g>
</g>
<g>
</g>
<g>
</g>
<g>
</g>
<g>
</g>
<g>
</g>
<g>
</g>
<g>
</g>
<g>
</g>
<g>
</g>
<g>
</g>
<g>
</g>
</svg>
