<?xml version="1.0" encoding="utf-8"?>
<!-- Generator: Adobe Illustrator 18.0.0, SVG Export Plug-In . SVG Version: 6.00 Build 0)  -->
<!DOCTYPE svg PUBLIC "-//W3C//DTD SVG 1.1//EN" "http://www.w3.org/Graphics/SVG/1.1/DTD/svg11.dtd">
<svg version="1.1" id="Layer_1" xmlns="http://www.w3.org/2000/svg" xmlns:xlink="http://www.w3.org/1999/xlink" x="0px" y="0px"
	 width="256px" height="256px" viewBox="0 0 256 256" enable-background="new 0 0 256 256" xml:space="preserve">
<g>
	<g>
		<path fill="#E0E0E0" d="M7.2,239.1v-51.5c0-15.5,12.6-28.2,28.2-28.2h2.8L49,239.1H7.2z"/>
	</g>
	<g>
		<path fill="#E0E0E0" d="M69,239.1l10.5-79.7h2.7c15.5,0,27.5,12.5,27.8,28.5c0.2,12,10,21.7,22,21.7h14.9c5.3,0,9.6,4,9.9,9.1
			c0.1,2.6-0.8,5.2-2.6,7.1c-1.8,1.9-4.3,3-6.9,3h-26.7c-7.5,0-14.3-4.4-17.5-11.2l-4.8-9.5c-0.7-1.3-1.9-2-3.3-2
			c-2.1,0-3.8,1.6-3.8,3.7v29.3H69z"/>
	</g>
	<g>
		<g>
			<polygon fill="#F68F6F" points="69.2,231.7 63.1,174 65.7,166.7 67.7,161.1 49.5,161.1 51.4,166.7 54,174 48,230.8 38.3,156.7 
				49,239.1 68.1,239.1 79.5,159.4 			"/>
		</g>
	</g>
	<g>
		<path fill="#4A555F" d="M58.6,155.3c-16.5,0-29.9-13.4-29.9-29.9s13.4-29.9,29.9-29.9s29.9,13.4,29.9,29.9
			C88.5,141.9,75.1,155.3,58.6,155.3z M58.6,98.7c-14.7,0-26.7,12-26.7,26.7s12,26.7,26.7,26.7h0c14.7,0,26.7-12,26.7-26.7
			C85.3,110.7,73.3,98.7,58.6,98.7z"/>
	</g>
	<g>
		<path fill="#FFD552" d="M58.6,149.1c-13,0-23.7-10.6-23.7-23.7s10.6-23.7,23.7-23.7c13,0,23.7,10.6,23.7,23.7
			S71.6,149.1,58.6,149.1L58.6,149.1z"/>
	</g>
	<g>
		<rect x="16.7" y="207" fill="#4A555F" width="3.1" height="32.1"/>
	</g>
	<g>
		<path fill="#4A555F" d="M64.3,175.6H52.9l-5.7-16H70L64.3,175.6z M55.1,172.4h6.9l3.5-9.8H51.7L55.1,172.4z"/>
	</g>
	<g>
		<polygon fill="#4A555F" points="70.3,239.3 67.2,238.9 67.8,233.9 61.8,175.6 55.4,175.6 49.5,232.2 50.4,238.9 47.3,239.3 
			46.4,232.3 46.4,232.1 52.6,172.4 64.6,172.4 71,234 		"/>
	</g>
	<g>
		<path fill="#4A555F" d="M40,181.3l-4-29.1l11.9,0l5.3,14.8L40,181.3z M39.7,155.3l2.6,19l7.4-8l-3.9-11L39.7,155.3z"/>
	</g>
	<g>
		<path fill="#4A555F" d="M78,182.1l-14-15l5.3-14.8l12.8,0L78,182.1z M67.6,166.3l8.2,8.8l2.7-19.8l-7,0L67.6,166.3z"/>
	</g>
	<g>
		
			<rect x="0.3" y="194.9" transform="matrix(0.1276 0.9918 -0.9918 0.1276 232.6506 128.3583)" fill="#4A555F" width="86.1" height="3.1"/>
	</g>
	<g>
		
			<rect x="73" y="153.4" transform="matrix(0.9909 0.1348 -0.1348 0.9909 27.1519 -8.2501)" fill="#4A555F" width="3.1" height="86.1"/>
	</g>
	<g>
		<path fill="#4A555F" d="M3.1,239.1H0v-51.5c0-19.5,15.9-35.4,35.4-35.4h46.4c19.5,0,35.4,15.9,35.4,35.4c0,8.1,6.6,14.7,14.7,14.7
			h15.2c9.3,0,16.8,7.5,16.8,16.8s-7.5,16.8-16.8,16.8h-26.7c-10.3,0-19.7-6-24-15.4l-6.1-13.3l2.8-1.3l6.1,13.3
			c3.8,8.3,12.1,13.6,21.2,13.6h26.7c7.5,0,13.7-6.1,13.7-13.7c0-7.5-6.1-13.7-13.7-13.7h-15.2c-9.8,0-17.8-8-17.8-17.8
			c0-17.8-14.5-32.3-32.3-32.3H35.4c-17.8,0-32.3,14.5-32.3,32.3V239.1z"/>
	</g>
	<g>
		<path fill="#4A555F" d="M112.7,178.3c-4.1-13.5-16.8-23-30.9-23H58.6v-3.1h23.2c15.5,0,29.5,10.4,33.9,25.2L112.7,178.3z"/>
	</g>
	<g>
		<rect x="95.2" y="217.6" fill="#4A555F" width="3.1" height="21.5"/>
	</g>
	<g>
		<path fill="#4A555F" d="M256,179.4H113l-0.3-1.1c-4.1-13.5-16.8-23-30.9-23H60.1l-0.2-3.1l1.5-0.2c13.6-1.4,23.9-12.9,23.9-26.6
			c0-14.7-12-26.7-26.7-26.7H57v-82h199V179.4z M115.3,176.3h137.6V19.8H60.2v75.9c15.7,0.8,28.3,13.9,28.3,29.8
			c0,11.7-6.6,21.8-16.5,26.7h9.8C96.9,152.2,110.5,162,115.3,176.3z"/>
	</g>
	<g>
		<path fill="#E0E0E0" d="M74.3,33.8v62.2c10.6,5.6,17.8,16.8,17.8,29.5c0,8.9-3.5,17.1-9.2,23.1c11.2,0.3,21.6,5.6,28.6,13.8h126.8
			V33.8H74.3z M143.4,150.1h-18.2v-29.4h18.2V150.1z M180.6,150.1h-18.2v-49.7h18.2V150.1z M217.8,150.1h-18.2V67.4h18.2V150.1z"/>
	</g>
	<g>
		<polygon fill="#4A555F" points="245.6,169.1 109,169.1 109,166 242.5,166 242.5,30 70.4,30 70.4,98.4 67.3,98.4 67.3,26.9 
			245.6,26.9 		"/>
	</g>
	<g>
		<path fill="#4A555F" d="M144.9,151.7h-21.3v-32.5h21.3V151.7z M126.7,148.5h15.1v-26.3h-15.1V148.5z"/>
	</g>
	<g>
		<rect x="130.4" y="125.9" fill="#71CDE1" width="7.8" height="19"/>
	</g>
	<g>
		<path fill="#4A555F" d="M182.2,151.7h-21.3V98.9h21.3V151.7z M164,148.5h15.1V102H164V148.5z"/>
	</g>
	<g>
		<rect x="167.6" y="105.6" fill="#71CDE1" width="7.8" height="39.3"/>
	</g>
	<g>
		<path fill="#4A555F" d="M219.4,151.7h-21.3V65.8h21.3V151.7z M201.2,148.5h15.1V68.9h-15.1V148.5z"/>
	</g>
	<g>
		<rect x="204.8" y="72.5" fill="#F68F6F" width="7.8" height="72.4"/>
	</g>
	<g>
		<path fill="#4A555F" d="M103.3,100.3c-0.4,0-0.6,0-0.6,0l0.1-3.1c0.6,0,57.5,0.9,87.4-52.9l2.7,1.5c-16.1,29-39.7,42.3-56.7,48.3
			C119.6,99.9,106.3,100.3,103.3,100.3z"/>
	</g>
	<g>
		<polygon fill="#4A555F" points="193.7,57.5 190.9,46 179.3,48.9 178.5,45.9 193.1,42.2 196.8,56.8 		"/>
	</g>
	<g>
		<polygon fill="#F68F6F" points="112.4,46.9 101.1,58.7 108,58.7 108,82.7 116.9,82.7 116.9,58.7 123.8,58.7 		"/>
	</g>
</g>
</svg>
