<svg xmlns="http://www.w3.org/2000/svg" version="1.1" xmlns:xlink="http://www.w3.org/1999/xlink" xmlns:svgjs="http://svgjs.dev/svgjs" viewBox="0 0 800 800" opacity="1"><defs><linearGradient x1="50%" y1="0%" x2="50%" y2="100%" id="uundulate-grad"><stop stop-color="hsl(167, 72%, 60%)" stop-opacity="1" offset="45%"></stop><stop stop-color="hsl(212, 72%, 59%)" stop-opacity="1" offset="100%"></stop></linearGradient></defs><g stroke-width="4" stroke="url(#uundulate-grad)" fill="none"><path d="M1815.0201556747256 -1228.3350539642822C2163.0140237730834 -723.3273343057235 2367.39162585167 1019.5121214950827 1724.1424334688331 1684.067744093943C1080.8932410859957 2348.6233666928038 -924.5820996645293 2466.5396541688006 -1272.575967762887 1961.5319345102416C-1620.5698358612449 1456.5242148516827 -589.4773257861216 -75.41368766828577 53.77186659671588 -739.9693102671436C697.0210589795533 -1404.524932866001 1467.0262875763678 -1733.342773622841 1815.0201556747256 -1228.3350539642822C2163.0140237730834 -723.3273343057235 2367.39162585167 1019.5121214950827 1724.1424334688331 1684.067744093943 "></path><path d="M1780.507476394264 -1188.6196489526249C2120.0136891731495 -695.9291907491529 2319.406471688844 1004.4019856418777 1691.8462839982708 1652.7489345188146C1064.2860963076978 2301.095883395752 -892.275211741595 2416.1361638601393 -1231.7814245204806 1923.4457056566666C-1571.2876372993665 1430.755247453195 -565.343725030953 -63.81831598092094 62.216462659619765 -712.1652648578552C689.776650350193 -1360.5122137347896 1441.0012636153779 -1681.3101071560966 1780.507476394264 -1188.6196489526249C2120.0136891731495 -695.9291907491529 2319.406471688844 1004.4019856418777 1691.8462839982708 1652.7489345188146 "></path><path d="M1745.9947971138013 -1148.9040608354985C2077.013354573215 -668.5308640871135 2271.421317526017 989.2920328941409 1659.5501345277085 1621.430308049155C1047.6789515294 2253.568583204168 -859.9683238186606 2365.732856656946 -1190.9868812780742 1885.3596599085608C-1522.0054387374876 1404.9864631601758 -541.2101242757847 -52.22276118808736 70.66105872252388 -684.3610363430985C682.5322417208326 -1316.4993114981094 1414.9762396543879 -1629.2772575838837 1745.9947971138013 -1148.9040608354985C2077.013354573215 -668.5308640871135 2271.421317526017 989.2920328941409 1659.5501345277085 1621.430308049155 "></path><path d="M1711.4821178333395 -1109.1886558238411C2034.0130199732812 -641.1327205305429 2223.4361633631906 974.1818970409358 1627.253985057146 1590.1114984740266C1031.071806751102 2206.041099907117 -827.6614358957261 2315.3293663482837 -1150.1923380356675 1847.2734310549858C-1472.723240175609 1379.2174957616876 -517.0765235206163 -40.62738950072253 79.10565478542799 -656.5569909338101C675.2878330914718 -1272.4865923668976 1388.9512156933984 -1577.2445911171394 1711.4821178333395 -1109.1886558238411C2034.0130199732812 -641.1327205305429 2223.4361633631906 974.1818970409358 1627.253985057146 1590.1114984740266 "></path><path d="M1676.9694690704555 -1069.4731897770275C1991.012715890925 -613.734515938816 2175.451039717942 959.071822222887 1594.957866104162 1558.792749934054C1014.4646924903823 2158.513677645221 -795.3545174552137 2264.9259370747786 -1109.397764275683 1809.1872632365676C-1423.4410110961521 1353.4485893983556 -492.94289224786985 -29.031956778201447 87.55028136591 -628.7528844893657C668.0434549796901 -1228.4738122005301 1362.9262222499865 -1525.211863615239 1676.9694690704555 -1069.4731897770275C1991.012715890925 -613.734515938816 2175.451039717942 959.071822222887 1594.957866104162 1558.792749934054 "></path><path d="M1642.4567592724156 -1029.757723730214C1948.0123507734124 -586.3363113470891 2127.465855037537 943.9617474048382 1562.6616861160214 1527.4740013940814C997.8575171945058 2110.986255383325 -763.0476600498573 2214.522507801273 -1068.6032515508546 1771.1010954181484C-1374.1588430518516 1327.679683035024 -468.80932201027963 -17.436524055680366 95.99484691123598 -600.9487780449213C660.7990158327516 -1184.4610320341621 1336.9011677714184 -1473.1791361133385 1642.4567592724156 -1029.757723730214C1948.0123507734124 -586.3363113470891 2127.465855037537 943.9617474048382 1562.6616861160214 1527.4740013940814 "></path><path d="M1607.9440799919535 -990.0421356130878C1905.0120161734785 -558.9379846850499 2079.4807008747107 928.8517946571014 1530.3655366454595 1496.1553749244217C981.2503724162084 2063.4589551917416 -730.7407721269229 2164.1192005980806 -1027.8087083084479 1733.0150496700426C-1324.876644489973 1301.910898742005 -444.6757212551113 -5.840969262846784 104.43944297414009 -573.1445495301643C653.5546072033912 -1140.448129797482 1310.8761438104284 -1421.1462865411256 1607.9440799919535 -990.0421356130878C1905.0120161734785 -558.9379846850499 2079.4807008747107 928.8517946571014 1530.3655366454595 1496.1553749244217 "></path><path d="M1573.4314007114917 -950.3266085311178C1862.0116815735441 -531.5397190581667 2031.4955467118843 913.7417808742089 1498.0693871748972 1464.8366874196058C964.6432276379101 2015.9315939650023 -698.4338842039886 2113.7158323597314 -987.0141650660414 1694.92894288678C-1275.5944459280943 1276.1420534138288 -420.54212049994294 5.754524494830548 112.88403903704398 -545.3403820505637C646.3101985740311 -1096.435288595958 1284.8511198494384 -1369.1134980040688 1573.4314007114917 -950.3266085311178C1862.0116815735441 -531.5397190581667 2031.4955467118843 913.7417808742089 1498.0693871748972 1464.8366874196058 "></path><path d="M1538.9185993607166 -910.6112645546166C1819.0112249032973 -504.14163653675246 1983.5102704787455 898.631583985848 1465.7731156340224 1433.5178168093207C948.0359607892997 1968.4040496327943 -666.1271183513666 2063.312281015913 -946.2197438939473 1656.8426529980493C-1226.3123694365281 1250.3730249801847 -396.4086418150871 17.34983514703913 121.32851302963559 -517.5363976764318C639.0656678743583 -1052.4226304999027 1258.8259738181364 -1317.080892572481 1538.9185993607166 -910.6112645546166C1819.0112249032973 -504.14163653675246 1983.5102704787455 898.631583985848 1465.7731156340224 1433.5178168093207 "></path><path d="M1504.4059200802549 -870.8956764374905C1776.0108903033633 -476.74330987471296 1935.5251163159187 883.5216312381112 1433.4769661634605 1402.199190339661C931.4288160110018 1920.876749441211 -633.8202304284322 2012.9089738127204 -905.4252006515408 1618.756607249943C-1177.0301708746492 1224.6042406871657 -372.27504105991864 28.94538993987271 129.7731090925397 -489.73216916167473C631.8212592449981 -1008.4097282632223 1232.800949857146 -1265.048043000268 1504.4059200802549 -870.8956764374905C1776.0108903033633 -476.74330987471296 1935.5251163159187 883.5216312381112 1433.4769661634605 1402.199190339661 "></path><path d="M1469.8932102822146 -831.1802714258331C1733.0105251858508 -449.34516631814233 1887.5399316355138 868.4114953849062 1401.1807861753196 1370.8803807645327C914.8216407151258 1873.3492661441592 -601.5133730230759 1962.5054835040587 -864.6306879267123 1580.670378396368C-1127.7480028303487 1198.8352732886774 -348.14147082232853 40.54076162723754 138.21767463786546 -461.92812375238657C624.5768200980597 -964.3970091320107 1206.7758953785783 -1213.0153765335237 1469.8932102822146 -831.1802714258331C1733.0105251858508 -449.34516631814233 1887.5399316355138 868.4114953849062 1401.1807861753196 1370.8803807645327 "></path><path d="M1435.3805615193305 -791.4647443438631C1690.010221103495 -421.9469006912593 1839.5548079902655 853.3014816020136 1368.8846672223358 1339.5616932597168C898.214526454406 1825.8219049174195 -569.2064545825634 1912.1021152657095 -823.8361141667276 1542.5842716131056C-1078.465773750892 1173.0664279605016 -324.00783954958206 52.136255384914875 146.6623012183477 -434.1239562727859C617.3324419862772 -920.3841679304867 1180.750901935166 -1160.982587996467 1435.3805615193305 -791.4647443438631C1690.010221103495 -421.9469006912593 1839.5548079902655 853.3014816020136 1368.8846672223358 1339.5616932597168 "></path><path d="M1400.8678822388688 -751.7492172618932C1647.0098865035607 -394.5486350643762 1791.5696538274387 838.191467819121 1336.5885177517735 1308.2430057549004C881.6073816761082 1778.2945436906798 -536.899566659629 1861.6987470273602 -783.0415709243211 1504.4981648298435C-1029.1835751890133 1147.2975826323263 -299.8742387944136 63.73174914259198 155.1068972812518 -406.31978879318535C610.0880333569171 -876.3713267289627 1154.7258779741765 -1108.9497994594103 1400.8678822388688 -751.7492172618932C1647.0098865035607 -394.5486350643762 1791.5696538274387 838.191467819121 1336.5885177517735 1308.2430057549004 "></path><path d="M1366.3553250287187 -712.0338122502358C1604.0096739739388 -367.15049150780544 1743.584621734925 823.0813319659155 1304.2924903515236 1276.9241961797716C865.0003589681228 1730.767060393628 -504.59255666638205 1811.295256718699 -742.2469056116021 1466.4119359762685C-979.9012545568221 1121.5286152338376 -275.74051596893275 75.32712082995704 163.55161541446842 -378.5157433838972C602.8437467978692 -832.3586075977512 1128.700976083499 -1056.9171329926662 1366.3553250287187 -712.0338122502358C1604.0096739739388 -367.15049150780544 1743.584621734925 823.0813319659155 1304.2924903515236 1276.9241961797716 "></path><path d="M1331.8424931603663 -672.3182851682659C1561.0091867861142 -339.7522258809224 1695.599314984208 807.9713181830232 1271.996188293071 1245.6055086749557C848.3930616019343 1683.2396991668884 -472.2858213313383 1760.8918884803497 -701.4525149570861 1428.3258291930065C-930.619208582834 1095.7597699056623 -251.60706780165515 86.92261458763414 171.99605888948167 -350.7115759042963C595.5991855806183 -788.3457663962272 1102.6757995346188 -1004.8843444556094 1331.8424931603663 -672.3182851682659C1561.0091867861142 -339.7522258809224 1695.599314984208 807.9713181830232 1271.996188293071 1245.6055086749557 "></path><path d="M1297.3299359502166 -632.6028496390304C1518.0089742564924 -312.35405180677367 1647.6142828916936 792.8612128473962 1239.7001608928213 1214.2867296174054C831.7860388939487 1635.7122463874148 -439.9788113380914 1710.4884286892661 -660.6578496443672 1390.2396308570092C-881.3368879506428 1069.9908330247526 -227.4733449761742 98.51801679257733 180.44077702269828 -322.90749997743C588.3548990215706 -744.3330167474375 1076.6508976439409 -952.851647471287 1297.3299359502166 -632.6028496390304C1518.0089742564924 -312.35405180677367 1647.6142828916936 792.8612128473962 1239.7001608928213 1214.2867296174054 "></path><path d="M1262.817256669755 -592.8872920394823C1475.008639656558 -284.9557556623124 1599.6291287288668 777.7512295820818 1207.404011422259 1182.9680726301676C815.1788941156508 1588.1849156782532 -407.6719234151569 1660.085090968495 -619.8633064019606 1352.1535545913252C-832.0546893887641 1044.2220182141555 -203.33974422100573 110.11354106783256 188.88537308560217 -295.1033019802512C581.1104903922103 -700.3201450283352 1050.6258736829514 -900.8188284166522 1262.817256669755 -592.8872920394823C1475.008639656558 -284.9557556623124 1599.6291287288668 777.7512295820818 1207.404011422259 1182.9680726301676 "></path><path d="M1228.3045163541365 -553.1717954750906C1432.0082440214678 -257.5575205530074 1551.6439135308842 762.6411852816111 1175.1078009165403 1151.6493546077736C798.5716883021967 1540.6575239339359 -375.3650965273788 1609.6816922125681 -579.0688241947103 1314.0674172904846C-782.7725518620417 1018.4531423684011 -179.20620450099375 121.70900430793199 197.32990811335003 -267.2991650182288C573.8660207276937 -656.3073343443893 1024.600788686805 -848.7860703971736 1228.3045163541365 -553.1717954750906C1432.0082440214678 -257.5575205530074 1551.6439135308842 762.6411852816111 1175.1078009165403 1151.6493546077736 "></path><path d="M1193.7918065560962 -513.4562989106987C1389.0078789039553 -230.1592854437024 1503.6587288504797 747.5311409811402 1142.8116209284003 1120.3306365853791C781.9645130063207 1493.130132189618 -343.05823912202254 1559.2782934566403 -538.2743114698818 1275.9812799896445C-733.4903838177411 992.6842665226479 -155.07263426340342 133.30446754803097 205.77447365867602 -239.49502805620614C566.6215815807554 -612.2945236604435 998.575734208237 -796.753312377695 1193.7918065560962 -513.4562989106987C1389.0078789039553 -230.1592854437024 1503.6587288504797 747.5311409811402 1142.8116209284003 1120.3306365853791 "></path><path d="M1159.279127275634 -473.74080234630696C1346.0075443040214 -202.7610503343974 1455.673574687653 732.4210966806693 1110.515471457838 1089.0119185629846C765.3573682280228 1445.6027404453002 -310.75135119908816 1508.874894700713 -497.4797682274753 1237.8951426888034C-684.2081852558624 966.9153906768938 -130.93903350823507 144.89993078813018 214.21906972158013 -211.6908910941837C559.3771729513951 -568.2817129764976 972.550710247247 -744.7205543582164 1159.279127275634 -473.74080234630696C1346.0075443040214 -202.7610503343974 1455.673574687653 732.4210966806693 1110.515471457838 1089.0119185629846 "></path><path d="M1124.766417477594 -434.0252447467589C1303.007179186509 -175.36275418993614 1407.688390007248 717.3111134153548 1078.2192914696975 1057.6932615757466C748.7501929321468 1398.0754097361387 -278.4444937937319 1458.4715569799419 -456.6852555026469 1199.8090664231195C-634.9260172115619 941.1465758662966 -106.80546327064485 156.49545506338563 222.66363526690589 -183.8866930970048C552.1327338044568 -524.2688412573954 946.5256557686789 -692.6877353035816 1124.766417477594 -434.0252447467589C1303.007179186509 -175.36275418993614 1407.688390007248 717.3111134153548 1078.2192914696975 1057.6932615757466 "></path><path d="M1090.253738197132 -394.3098397351015C1260.0068445865745 -147.9646106333655 1359.7032358444221 702.2009775621498 1045.9231419991354 1026.3744520006182C732.1430481538489 1350.547926439087 -246.13760587079742 1408.0680666712806 -415.8907122602403 1161.7228375695443C-585.6438186496832 915.3776084678084 -82.6718625154765 168.09082675075047 231.10823132980977 -156.08264768771664C544.8883251750965 -480.25612212618387 920.5006318076889 -640.6550688368374 1090.253738197132 -394.3098397351015C1260.0068445865745 -147.9646106333655 1359.7032358444221 702.2009775621498 1045.9231419991354 1026.3744520006182 "></path><path d="M1055.7410589166698 -354.5943431707097C1217.0065099866406 -120.5663755240605 1311.7180816815953 687.0909332616789 1013.626992528573 995.0557339782242C715.535903375551 1303.0205346947696 -213.83071794786304 1357.6646679153528 -375.09616901783374 1123.6367002687039C-536.3616200878045 889.6087326220547 -58.53826176030816 179.68628999084967 239.552827392714 -128.2785107256941C537.6439165457359 -436.24331144223794 894.4756078466992 -588.6223108173588 1055.7410589166698 -354.5943431707097C1217.0065099866406 -120.5663755240605 1311.7180816815953 687.0909332616789 1013.626992528573 995.0557339782242 "></path><path d="M1021.2283186010516 -314.87878557116164C1174.00611435155 -93.16807937959925 1263.7328664836123 671.9809499963644 981.3307820228545 963.737076990986C698.9286975620967 1255.4932039856078 -181.5238910600849 1307.2613301945821 -334.3016868105835 1085.5506240030195C-487.07948256108205 863.8399178114573 -34.404722040296065 191.28181426610513 247.99736242046174 -100.47431272851532C530.3994468812195 -392.23043972313576 868.4505228505529 -536.5894917627239 1021.2283186010516 -314.87878557116164C1174.00611435155 -93.16807937959925 1263.7328664836123 671.9809499963644 981.3307820228545 963.737076990986 "></path><path d="M986.7156393205896 -275.1633500419261C1131.0057797516158 -65.7699053054505 1215.747712320786 656.8708446607372 949.0346325522924 932.4182979334357C682.3215527837988 1207.965751206134 -149.21700313715053 1256.8578704034985 -293.50714356817696 1047.4644256670229C-437.7972839992034 838.0709809305472 -10.27112128512772 202.8772164710481 256.44195848336574 -72.67023680164903C523.1550382518594 -348.21769007434614 842.425498889563 -484.55679477840164 986.7156393205896 -275.1633500419261C1131.0057797516158 -65.7699053054505 1215.747712320786 656.8708446607372 949.0346325522924 932.4182979334357 "></path><path d="M952.2030210752837 -235.4478534775343C1088.005506186838 -38.37167019614549 1167.7626191931156 641.7608003602666 916.7385441168865 901.0995799110415C665.7144690406571 1160.4383594618164 -116.9100541790599 1206.4544716475712 -252.71253929061413 1009.3782883661825C-388.5150244021684 812.3021050847938 13.862540505196876 214.4726797111473 264.8866155814261 -44.866099839626486C515.9106906576553 -304.2048793904002 816.4005359637292 -432.52403675892305 952.2030210752837 -235.4478534775343C1088.005506186838 -38.37167019614549 1167.7626191931156 641.7608003602666 916.7385441168865 901.0995799110415 "></path><path d="M917.6903417948215 -195.7323569131425C1045.0051715869038 -10.973435086840595 1119.777465030289 626.6507560597959 884.4423946463241 869.7808618886475C649.1073242623593 1112.9109677174988 -84.60316625612546 1156.0510728916438 -211.91799604820756 971.2921510653418C-339.2328258402897 786.5332292390399 37.99614126036522 226.0681429512465 273.3312116443301 -17.061962877603946C508.666282028295 -260.1920687064543 790.3755120027392 -380.49127873944445 917.6903417948215 -195.7323569131425C1045.0051715869038 -10.973435086840595 1119.777465030289 626.6507560597959 884.4423946463241 869.7808618886475 "></path><path d="M883.1776014792031 -156.01692138390695C1002.0047759518131 16.424738987308274 1071.7922498323062 611.5406507241687 852.1461841406056 838.4620828310967C632.5001184489051 1065.383514938025 -52.296339368347276 1105.6476131005604 -171.1235138409573 933.2059527293452C-289.9506883135673 760.7642923581298 62.129680980377316 237.66354515618946 281.77574667207796 10.742113049262343C501.4218123637784 -216.17931905766466 764.3504270065932 -328.4585817551221 883.1776014792031 -156.01692138390695C1002.0047759518131 16.424738987308274 1071.7922498323062 611.5406507241687 852.1461841406056 838.4620828310967 "></path><path d="M848.6649221987411 -116.30139430193708C959.004441351879 43.82300461419129 1023.8070956694796 596.4306369412761 819.8500346700434 807.1433953262808C615.8929736706073 1017.8561537112855 -19.989451445412897 1055.2442448622112 -130.32897059855077 895.1198459460827C-240.66848975168858 734.9954470299544 86.26328173554566 249.2590389138668 290.22034273498195 38.54628052886312C494.17740373441814 -172.1664778561406 738.3254030456033 -276.4257932180654 848.6649221987411 -116.30139430193708C959.004441351879 43.82300461419129 1023.8070956694796 596.4306369412761 819.8500346700434 807.1433953262808 "></path><path d="M814.1522429182792 -76.58589773754528C916.0041067519448 71.2212397234963 975.821941506653 581.3205926408054 787.5538851994811 775.8246773038868C599.2858288923094 970.3287619669679 12.31743647752154 1004.8408461062841 -89.53442735614419 857.0337086452423C-191.38629118980992 709.2265711842006 110.396882490714 260.854502153966 298.66493879788595 66.35041749088555C486.9329951050578 -128.15366717219467 712.3003790846133 -224.3930351985868 814.1522429182792 -76.58589773754528C916.0041067519448 71.2212397234963 975.821941506653 581.3205926408054 787.5538851994811 775.8246773038868 "></path><path d="M779.6395331202389 -36.87043169073161C873.0037416344326 98.61944431522318 927.8367568262483 566.2105178227566 755.2577052113409 744.5059287639142C582.6786535964333 922.801339705072 44.624293882877794 954.4374168327784 -48.73991463131574 818.9475408268236C-142.10412314550933 683.4576648208688 134.53045272830434 272.44993487648696 307.10950434321194 94.15452393532996C479.6885559581194 -84.14088700582693 686.2753246060454 -172.36030769668633 779.6395331202389 -36.87043169073161C873.0037416344326 98.61944431522318 927.8367568262483 566.2105178227566 755.2577052113409 744.5059287639142 "></path><path d="M745.126884357355 2.845095391238317C830.0034375520763 126.01770994210631 879.8516331810001 551.100504039864 722.9615862583569 713.1872412590983C566.0715393357135 875.2739784783325 76.93121232339035 904.0340485944294 -7.945340871331098 780.8614340435611C-92.82189406605255 657.6888194926933 158.6640840010508 284.0454286341643 315.55413092369395 121.95869141493074C472.4441778463373 -40.12804580430287 660.2503311626335 -120.32751915962962 745.126884357355 2.845095391238317C830.0034375520763 126.01770994210631 879.8516331810001 551.100504039864 722.9615862583569 713.1872412590983 "></path><path d="M710.614174559315 42.56056143805199C787.003072434564 153.4159145338332 831.8664485005952 535.990429221815 690.6654062702163 681.8684927191257C549.4643640398374 827.7465562164366 109.23806972874661 853.6306193209239 32.849171853497296 742.7752662251426C-43.53972602175196 631.9199131293615 182.79765423864103 295.6408613566854 323.99869646901993 149.76279785937515C465.19973869939884 3.8847343620649326 634.2252766840655 -68.29479165772915 710.614174559315 42.56056143805199C787.003072434564 153.4159145338332 831.8664485005952 535.990429221815 690.6654062702163 681.8684927191257 "></path><path d="M676.1015257964309 82.27611903760004C744.002768352208 180.81421067829444 783.881324855347 520.8804459565005 658.3692873172323 650.5498357318879C532.8572497791176 780.2192255072755 141.5449881692591 803.2272816001528 73.643745613482 704.6891899594584C5.74250305770488 606.1510983187641 206.9312855113875 307.23638563194083 332.44332304950217 177.56699585655394C457.9553605876167 47.897606081167055 608.2002832406537 -16.261972603094364 676.1015257964309 82.27611903760004C744.002768352208 180.81421067829444 783.881324855347 520.8804459565005 658.3692873172323 650.5498357318879 "></path><path d="M641.5888159983906 121.99155456683559C701.0024032346956 208.2123847524432 735.8961401749422 505.7703406208734 626.0731073290918 619.2310566743374C516.2500744832416 732.6917727278015 173.85184557461542 752.8238218090692 114.43825833831045 666.6029916234617C55.024671102005414 580.3821614378539 231.06485574897772 318.8317878368838 340.88788859482804 205.37107178342023C450.71092144067825 91.91035572995673 582.1752287620857 35.77072438122798 641.5888159983906 121.99155456683559C701.0024032346956 208.2123847524432 735.8961401749422 505.7703406208734 626.0731073290918 619.2310566743374 "></path><path d="M607.0761062003505 161.7070511312274C658.0020381171834 235.61061986174815 687.9109554945375 490.6602963204027 593.7769273409515 587.9123386519434C499.64289918736563 685.164380983484 206.15870297997168 702.420423053142 155.23277106313884 628.5168543226212C104.306839146306 554.6132855921003 255.19842598656794 330.427251076983 349.3324541401539 233.17520874544277C443.4664822937398 135.92316641390266 556.1501742835176 87.80348240070657 607.0761062003505 161.7070511312274C658.0020381171834 235.61061986174815 687.9109554945375 490.6602963204027 593.7769273409515 587.9123386519434 "></path><path d="M572.5634421786775 201.42256295440825C615.0017187760382 263.0088702298422 639.9258165905001 475.5502672787211 561.4807931291784 556.5936358883382C483.0357696678568 637.6370044979553 238.46560616169518 652.0170395560037 196.02732956433442 590.4307322805696C153.58905296697372 528.8444250051357 279.3320420005254 342.02272957587115 357.777065461847 260.97936096625443C436.2220889231687 179.93599235663766 530.1251655813168 139.83625567897423 572.5634421786775 201.42256295440825C615.0017187760382 263.0088702298422 639.9258165905001 475.5502672787211 561.4807931291784 556.5936358883382 "></path><path d="M538.0507476394264 241.13804426001093C572.001368917315 290.40709008035816 591.9406471688844 460.4402077194611 529.184628399827 525.2749026071549C466.42860963076976 590.1095974948487 270.7724788258405 601.6136255412873 236.82185754795194 552.3445797209401C202.87123627006338 503.075533900593 303.4656274969047 353.61817755718135 366.221646265962 288.7834826694879C428.9776650350193 223.94878778179446 504.10012636153783 191.86899843966376 538.0507476394264 241.13804426001093C572.001368917315 290.40709008035816 591.9406471688844 460.4402077194611 529.184628399827 525.2749026071549 "></path><path d="M503.53805310017526 280.8535408244027C529.0010190585917 317.8053251896631 543.9554777472688 445.3301634189904 496.88846367047574 493.95618458476076C449.8214495936828 542.5822057505311 303.07935148998587 551.2102267853601 277.61638553156945 514.2584424200996C252.15341957315297 477.3066580548392 327.59921299328397 365.21364079728056 374.66622707007696 316.58761963151045C421.7332411468699 267.9615984657404 478.0750871417588 243.90175645914235 503.53805310017526 280.8535408244027C529.0010190585917 317.8053251896631 543.9554777472688 445.3301634189904 496.88846367047574 493.95618458476076 "></path><path d="M469.02535856092413 320.5690068712164C486.0006691998684 345.20352978139 495.97030832565315 430.2200886009415 464.59229894112445 462.6374360447884C433.2142895565958 495.0547834886353 335.3862241541312 500.8067975118546 318.4109135151869 476.172274601681C301.4356028762426 451.5377516915074 351.7327984896633 376.8090735198016 383.11080787419195 344.3917260759549C414.4888172587206 311.9743786321082 452.05004792197985 295.9344839610428 469.02535856092413 320.5690068712164C486.0006691998684 345.20352978139 495.97030832565315 430.2200886009415 464.59229894112445 462.6374360447884 "></path><path d="M434.51267928046207 360.28448817681914C443.0003345999342 372.60174963190593 447.9851541628266 415.1100290416817 432.2961494705622 431.31870276360513C416.6071447782979 447.5273764855286 367.6931120770656 450.40338349713824 359.2054567575934 438.08612204205144C350.7178014381213 425.76886058696465 375.86639924483165 388.40452150111173 391.55540393709595 372.1958477791884C407.2444086293603 355.987174057265 426.0250239609899 347.96722672173235 434.51267928046207 360.28448817681914C443.0003345999342 372.60174963190593 447.9851541628266 415.1100290416817 432.2961494705622 431.31870276360513 "></path></g></svg>