<svg xmlns="http://www.w3.org/2000/svg" xmlns:xlink="http://www.w3.org/1999/xlink" width="3000" zoomAndPan="magnify" viewBox="0 0 2250 2250.000011" height="3000" preserveAspectRatio="xMidYMid meet" version="1.0"><path fill="#000000" d="M 786.84375 1322.15625 L 588.464844 1123.78125 C 562.699219 1098.011719 562.699219 1056.472656 588.464844 1030.703125 L 1030.980469 587.964844 C 1056.75 562.199219 1098.289062 562.199219 1124.058594 587.964844 L 1322.65625 786.34375 C 1348.425781 812.109375 1348.425781 853.875 1322.65625 879.421875 L 879.921875 1322.15625 C 854.152344 1347.925781 812.609375 1347.925781 786.84375 1322.15625 Z M 752.855469 694.597656 L 695.097656 752.355469 C 679.101562 768.347656 679.101562 794.339844 695.097656 810.335938 L 702.425781 817.664062 L 817.941406 702.148438 L 810.613281 694.820312 C 794.617188 678.601562 768.625 678.601562 752.855469 694.597656 Z M 1093.179688 1208.195312 L 1541.914062 1656.929688 C 1571.683594 1686.699219 1619.886719 1686.699219 1649.65625 1656.929688 L 1657.429688 1649.15625 C 1687.199219 1619.386719 1687.199219 1571.183594 1657.429688 1541.414062 L 1208.695312 1092.679688 Z M 1093.179688 1208.195312 " fill-opacity="1" fill-rule="nonzero"/></svg>