<svg xmlns="http://www.w3.org/2000/svg" xmlns:xlink="http://www.w3.org/1999/xlink" width="3000" zoomAndPan="magnify" viewBox="0 0 2250 2250.000011" height="3000" preserveAspectRatio="xMidYMid meet" version="1.0"><path fill="#ffffff" d="M 786.859375 1322.21875 L 588.46875 1123.828125 C 562.699219 1098.058594 562.699219 1056.511719 588.46875 1030.742188 L 1031.019531 587.96875 C 1056.789062 562.199219 1098.335938 562.199219 1124.105469 587.96875 L 1322.71875 786.359375 C 1348.492188 812.132812 1348.492188 853.898438 1322.71875 879.449219 L 879.949219 1322.21875 C 854.175781 1347.992188 812.632812 1347.992188 786.859375 1322.21875 Z M 752.871094 694.605469 L 695.105469 752.371094 C 679.109375 768.367188 679.109375 794.359375 695.105469 810.355469 L 702.4375 817.6875 L 817.964844 702.160156 L 810.632812 694.828125 C 794.636719 678.613281 768.644531 678.613281 752.871094 694.605469 Z M 1093.226562 1208.25 L 1541.996094 1657.023438 C 1571.765625 1686.792969 1619.976562 1686.792969 1649.746094 1657.023438 L 1657.519531 1649.246094 C 1687.292969 1619.476562 1687.292969 1571.265625 1657.519531 1541.496094 L 1208.75 1092.726562 Z M 1093.226562 1208.25 " fill-opacity="1" fill-rule="nonzero"/></svg>