<svg xmlns="http://www.w3.org/2000/svg" xmlns:xlink="http://www.w3.org/1999/xlink" width="3000" zoomAndPan="magnify" viewBox="0 0 2250 2250.000011" height="3000" preserveAspectRatio="xMidYMid meet" version="1.0"><path fill="#ffffff" d="M 899.246094 1256.503906 L 766.792969 1124.050781 C 749.589844 1106.84375 749.589844 1079.109375 766.792969 1061.902344 L 1062.253906 766.292969 C 1079.460938 749.089844 1107.195312 749.089844 1124.402344 766.292969 L 1257.003906 898.746094 C 1274.210938 915.953125 1274.210938 943.835938 1257.003906 960.894531 L 961.394531 1256.503906 C 944.1875 1273.710938 916.453125 1273.710938 899.246094 1256.503906 Z M 876.554688 837.488281 L 837.988281 876.054688 C 827.308594 886.734375 827.308594 904.085938 837.988281 914.765625 L 842.882812 919.660156 L 920.011719 842.53125 L 915.117188 837.636719 C 904.4375 826.808594 887.085938 826.808594 876.554688 837.488281 Z M 1103.785156 1180.414062 L 1403.398438 1480.027344 C 1423.273438 1499.902344 1455.460938 1499.902344 1475.335938 1480.027344 L 1480.527344 1474.835938 C 1500.402344 1454.960938 1500.402344 1422.773438 1480.527344 1402.898438 L 1180.914062 1103.285156 Z M 1103.785156 1180.414062 " fill-opacity="1" fill-rule="nonzero"/></svg>